<?xml version="1.0" encoding="UTF-8"?>
<svg version="1.1" xmlns="http://www.w3.org/2000/svg" width="500" height="500">
<path d="M0 0 C165 0 330 0 500 0 C500 165 500 330 500 500 C335 500 170 500 0 500 C0 335 0 170 0 0 Z " fill="#FEF7E7" transform="translate(0,0)"/>
<path d="M0 0 C3.14344435 1.74635797 5.46862726 3.46862726 8 6 C8 7.32 8 8.64 8 10 C9.60875 10.12375 9.60875 10.12375 11.25 10.25 C15.36386544 11.07277309 16.52948155 11.7059754 19 15 C19.28875 15.825 19.5775 16.65 19.875 17.5 C21.42716576 20.94925724 23.87154739 21.97954102 27 24 C29.58629613 27.40920854 29.15980561 30.84505405 29 35 C29.598125 35.226875 30.19625 35.45375 30.8125 35.6875 C33.70715882 37.42429529 34.63035715 38.9183036 36 42 C36.53255319 46.97049643 36.1529475 50.05881562 33 54 C30.8125 55.3125 30.8125 55.3125 29 56 C29.061875 57.216875 29.12375 58.43375 29.1875 59.6875 C29.16667412 63.60970692 28.67434362 65.96907723 26 69 C22.8125 70.3125 22.8125 70.3125 20 71 C20 72.65 20 74.3 20 76 C19.34 76 18.68 76 18 76 C17.71125 76.61875 17.4225 77.2375 17.125 77.875 C16 80 16 80 14 82 C10.875 82.125 10.875 82.125 8 82 C7.95875 82.556875 7.9175 83.11375 7.875 83.6875 C6.54454113 87.20371272 4.21732903 89.22732847 1 91 C-4.94544388 91.95894256 -8.40141142 90.8599847 -13.30078125 87.4140625 C-15.67998022 85.4341314 -16.91375722 83.91927747 -18 81 C-18.21827459 78.2791818 -18.13927299 75.73903544 -18 73 C-22.86909951 73.72495482 -26.2107195 74.33958162 -30.0625 77.5625 C-33.02643282 80.02193362 -33.61496467 80.31971062 -37.1875 80.625 C-41.3272781 81.03219129 -41.39148736 81.2729186 -44 84 C-47 84.4375 -47 84.4375 -50 84 C-51.875 82.4375 -51.875 82.4375 -53 80 C-53.3125 76.375 -53.3125 76.375 -53 73 C-51 71 -51 71 -47.5625 70.75 C-44 71 -44 71 -41 73 C-38.08461971 73.50042146 -38.08461971 73.50042146 -35 73 C-34.29875 72.34 -33.5975 71.68 -32.875 71 C-28.20010963 67.74790235 -23.5893939 68.75431236 -18 69 C-18 65.04 -18 61.08 -18 57 C-23.58500567 57.19898708 -23.58500567 57.19898708 -28 60 C-29.875 60.265625 -29.875 60.265625 -32 60.25 C-32.70125 60.25515625 -33.4025 60.2603125 -34.125 60.265625 C-36 60 -36 60 -38 58 C-38.375 54.5625 -38.375 54.5625 -38 51 C-35.76679398 48.33733129 -34.3799883 48.04652918 -30.9375 47.625 C-27.52082052 48.06117185 -27.31261028 48.68738972 -25 51 C-21.38976901 51.73041853 -21.38976901 51.73041853 -18 52 C-18 47.38 -18 42.76 -18 38 C-19.423125 38.103125 -20.84625 38.20625 -22.3125 38.3125 C-23.11300781 38.37050781 -23.91351563 38.42851562 -24.73828125 38.48828125 C-27.39659261 39.08972993 -28.19338791 40.0329152 -30 42 C-32.5 42.4375 -32.5 42.4375 -35 42 C-36.875 40.4375 -36.875 40.4375 -38 38 C-37.87890756 34.54886548 -37.63213135 32.03137221 -35.8125 29.0625 C-33.11939495 27.48378325 -31.05969475 27.6812818 -28 28 C-27.01 28.66 -26.02 29.32 -25 30 C-25 30.66 -25 31.32 -25 32 C-22.69 32 -20.38 32 -18 32 C-18 29.03 -18 26.06 -18 23 C-18.6290625 23.06960937 -19.258125 23.13921875 -19.90625 23.2109375 C-26.34666216 23.61831297 -29.26486704 22.59227394 -34.10546875 18.40234375 C-37.01794408 16.24651149 -39.43581022 16.14850791 -43 16 C-43.33 16.99 -43.66 17.98 -44 19 C-49.23955432 20.42896936 -49.23955432 20.42896936 -52.4375 18.625 C-54.50219564 15.15631132 -54.08651824 12.92785343 -53.5546875 9.0234375 C-53 7 -53 7 -51 5 C-46.99689193 4.54681795 -44.85133384 4.32789434 -41.625 6.875 C-40.75875 7.57625 -39.8925 8.2775 -39 9 C-36.84186074 9.6081774 -36.84186074 9.6081774 -34.5 10 C-30.31793572 10.76602167 -28.30252639 12.30583373 -25 15 C-21.310252 15.80222151 -21.310252 15.80222151 -18 16 C-17.95875 14.989375 -17.9175 13.97875 -17.875 12.9375 C-17.21557592 8.16637284 -14.41559759 5.22017783 -11 2 C-7.29901576 -0.46732283 -4.29464299 -0.68194709 0 0 Z " fill="#5A72DD" transform="translate(295,159)"/>
<path d="M0 0 C4.31063699 1.75299238 7.90657998 3.80717816 11.0625 7.25 C12.40332093 11.18307473 12.24203324 14.88543497 12 19 C16.21762599 18.053186 19.0308526 17.13959961 22.375 14.375 C26.38392179 11.26100836 30.11005013 11.50102552 35 12 C35.309375 11.360625 35.61875 10.72125 35.9375 10.0625 C37 8 37 8 38 7 C41.20957777 6.56627327 42.59999199 6.72972432 45.3125 8.5625 C47.63226055 11.91326523 47.58004676 14.01217855 47 18 C45.3125 20 45.3125 20 43 21 C39.49389321 20.7434556 37.9721099 19.9814066 35 18 C32.0231766 17.52641446 29.94523075 17.33509504 27.40625 19.12109375 C26.8596875 19.57613281 26.313125 20.03117187 25.75 20.5 C21.36132382 24.00107875 17.43657701 23.37236829 12 23 C12 26.96 12 30.92 12 35 C16.69794505 34.82619482 16.69794505 34.82619482 20.4375 32.4375 C22.42699061 30.60716864 23.40117396 30.74473282 26.0625 30.6875 C30 31 30 31 32 33 C32.5410628 38.95169082 32.5410628 38.95169082 31 41.9375 C27.60529375 43.74093769 24.80755575 43.36262436 21 43 C20.34 42.01 19.68 41.02 19 40 C15.43230448 39.26393501 15.43230448 39.26393501 12 39 C12 43.62 12 48.24 12 53 C13.44375 52.87625 14.8875 52.7525 16.375 52.625 C17.18710938 52.55539063 17.99921875 52.48578125 18.8359375 52.4140625 C21.20334191 52.17107412 21.20334191 52.17107412 23 50 C26.13704316 49.666272 28.16554166 49.47150972 30.875 51.1875 C32.44442256 53.71601412 32.48921715 55.0646971 32 58 C30.4375 60.8125 30.4375 60.8125 28 63 C24.25 63.3125 24.25 63.3125 21 63 C20.34 61.68 19.68 60.36 19 59 C16.69 59 14.38 59 12 59 C12 61.97 12 64.94 12 68 C12.64066406 68.01417969 13.28132813 68.02835937 13.94140625 68.04296875 C19.68425025 68.35963824 22.85071409 69.20244102 27.26171875 72.85546875 C30.31940222 74.86873 33.4043665 74.81075613 37 75 C37.495 73.515 37.495 73.515 38 72 C43.23955432 70.57103064 43.23955432 70.57103064 46.4375 72.375 C48.48475453 75.81438761 48.12989555 77.99961556 47.65234375 81.87890625 C46.88582466 84.37124077 46.05858382 85.42027141 44 87 C41 87.4375 41 87.4375 38 87 C37.566875 86.360625 37.13375 85.72125 36.6875 85.0625 C35.23699371 82.81671965 35.23699371 82.81671965 33.1015625 82.72265625 C32.34617187 82.69042969 31.59078125 82.65820312 30.8125 82.625 C25.90841202 82.32247509 23.54930383 80.45487776 19.86328125 77.3671875 C17.3545427 75.52639402 15.07062614 75.15353131 12 75 C12.10054687 76.09248047 12.10054687 76.09248047 12.203125 77.20703125 C11.95108513 80.67257953 10.91581351 82.00753328 8.75 84.6875 C8.14671875 85.45449219 7.5434375 86.22148437 6.921875 87.01171875 C3.77562459 90.26668107 1.62853051 90.92903688 -2.875 91.4375 C-6.09203288 91.35932911 -7.90216318 90.73550474 -10.4375 88.75 C-13.76447498 85.17958783 -13.76447498 85.17958783 -14 82 C-15.0725 81.938125 -16.145 81.87625 -17.25 81.8125 C-21 81 -21 81 -23.4375 78.75 C-25.10291199 75.8188749 -25.37775893 74.3053906 -25 71 C-26.11375 70.9071875 -26.11375 70.9071875 -27.25 70.8125 C-30.84889332 69.74919061 -31.91859246 68.04777533 -34 65 C-35.4783226 62.04335481 -35.06032783 59.25770263 -35 56 C-35.8971875 55.9071875 -35.8971875 55.9071875 -36.8125 55.8125 C-39 55 -39 55 -40.75 53.0625 C-42.54025764 48.67636877 -42.84185725 44.6684811 -42 40 C-39.625 36.875 -39.625 36.875 -37 35 C-36.34 35 -35.68 35 -35 35 C-35.103125 33.80375 -35.20625 32.6075 -35.3125 31.375 C-35.31844896 28.02573467 -34.84281259 26.19291582 -32.75 23.5625 C-29.17958783 20.23552502 -29.17958783 20.23552502 -26 20 C-26.103125 19.278125 -26.20625 18.55625 -26.3125 17.8125 C-26 15 -26 15 -23.875 12.25 C-21 10 -21 10 -17.875 9.5 C-16.92625 9.335 -15.9775 9.17 -15 9 C-13.37249963 6.67676547 -13.37249963 6.67676547 -12 4 C-8.11257791 0.00459396 -5.52326624 -0.82848994 0 0 Z " fill="#4F61D9" transform="translate(193,159)"/>
<path d="M0 0 C1.63006592 1.08432007 1.63006592 1.08432007 3 3 C3.36749268 6.12539673 3.36749268 6.12539673 3.35644531 10.02587891 C3.35951187 11.09214256 3.35951187 11.09214256 3.36264038 12.1799469 C3.36564817 14.52908057 3.3471749 16.8775123 3.328125 19.2265625 C3.32506778 20.85655544 3.32319138 22.48655099 3.32244873 24.11654663 C3.317846 27.53125008 3.30341921 30.94571764 3.28125 34.36035156 C3.2529228 38.74668558 3.24203407 43.13283407 3.2375679 47.51925087 C3.23342043 50.88373689 3.22360934 54.24818506 3.21169281 57.61265182 C3.20597955 59.23065257 3.20122436 60.84865699 3.19742584 62.46666336 C3.19058478 64.72214475 3.17696402 66.97747625 3.16113281 69.23291016 C3.15430481 70.51847809 3.14747681 71.80404602 3.14044189 73.12857056 C3 76 3 76 2 77 C-5.10961214 77.45868465 -5.10961214 77.45868465 -8.0625 75.9375 C-9.55238061 72.8584134 -8.67482518 70.25143042 -8 67 C-8.7425 67.350625 -9.485 67.70125 -10.25 68.0625 C-13.16209794 69.05526066 -14.21069033 69.1541971 -17 68 C-17.66 67.34 -18.32 66.68 -19 66 C-18.625 63.875 -18.625 63.875 -18 62 C-17.34 62.66 -16.68 63.32 -16 64 C-13.12762267 64.58442963 -13.12762267 64.58442963 -10 64 C-6.95726583 61.9575649 -6.95726583 61.9575649 -5 59 C-5.04979584 56.239835 -5.04979584 56.239835 -6 54 C-8.71357535 53.12865812 -8.71357535 53.12865812 -12 53 C-15.22132295 54.73083907 -15.22132295 54.73083907 -18 57 C-21 59 -21 59 -23.5625 58.75 C-26 58 -26 58 -28 56 C-28.125 52.875 -28.125 52.875 -28 50 C-26.515 49.505 -26.515 49.505 -25 49 C-25 47.68 -25 46.36 -25 45 C-28.465 45.495 -28.465 45.495 -32 46 C-34.53752812 43.35674154 -34.99195908 42.11659328 -35.25 38.375 C-35 35 -35 35 -34 33 C-32.02 33 -30.04 33 -28 33 C-28.33 35.97 -28.66 38.94 -29 42 C-27.39620659 42.05416188 -25.79188594 42.09286638 -24.1875 42.125 C-22.84751953 42.15980469 -22.84751953 42.15980469 -21.48046875 42.1953125 C-18.74597286 42.18285827 -18.74597286 42.18285827 -16 40 C-15.66659529 36.95804573 -15.66659529 36.95804573 -16 34 C-17.96822886 32.03177114 -21.34808709 32.33751619 -24 32 C-24 31.01 -24 30.02 -24 29 C-25.32 29 -26.64 29 -28 29 C-28 26.36 -28 23.72 -28 21 C-23.85738687 19.44652008 -20.23334718 20.11236269 -16 21 C-14.625 23 -14.625 23 -14 25 C-11.77109005 26.11445498 -10.46944894 26.16480286 -8 26.1875 C-6.948125 26.20876953 -6.948125 26.20876953 -5.875 26.23046875 C-3.75475062 26.16512323 -3.75475062 26.16512323 -2 24 C-1.60235737 22.01178687 -1.26224651 20.01055661 -1 18 C-3.81227622 17.06257459 -5.58746844 16.86529156 -8.5 16.875 C-9.2734375 16.87242187 -10.046875 16.86984375 -10.84375 16.8671875 C-13.18447017 16.91854187 -13.18447017 16.91854187 -16 18 C-18.1875 17.0625 -18.1875 17.0625 -20 16 C-19.67 14.02 -19.34 12.04 -19 10 C-17.68 9.67 -16.36 9.34 -15 9 C-14.67 10.32 -14.34 11.64 -14 13 C-12.02 13 -10.04 13 -8 13 C-8.11859375 12.31292969 -8.2371875 11.62585938 -8.359375 10.91796875 C-8.48828125 10.01691406 -8.6171875 9.11585938 -8.75 8.1875 C-8.88921875 7.29417969 -9.0284375 6.40085938 -9.171875 5.48046875 C-9 3 -9 3 -7.17578125 1.19921875 C-4.50881468 -0.27072512 -3.00254555 -0.46193008 0 0 Z " fill="#F8F2E7" transform="translate(195,165)"/>
<path d="M0 0 C7.6796875 -0.203125 7.6796875 -0.203125 10.5625 1.625 C12 4 12 4 11.75 7.25 C11.5025 8.1575 11.255 9.065 11 10 C11.7425 9.649375 12.485 9.29875 13.25 8.9375 C16.16209794 7.94473934 17.21069033 7.8458029 20 9 C20.66 9.66 21.32 10.32 22 11 C21.625 13.125 21.625 13.125 21 15 C20.01 14.34 19.02 13.68 18 13 C14.41011248 13.3778829 11.30342709 14.58424553 8 16 C7.83318891 18.91652174 7.83318891 18.91652174 8 22 C8.66 22.66 9.32 23.32 10 24 C14.05568293 23.84695536 16.33302804 23.55025187 19.5 20.9375 C22.81481882 18.36851541 24.90737946 18.53668447 29 19 C31 21 31 21 31.125 24.625 C31.08375 25.73875 31.0425 26.8525 31 28 C30.34 28.33 29.68 28.66 29 29 C28.88785156 29.63421875 28.77570313 30.2684375 28.66015625 30.921875 C28 33 28 33 25.93359375 34.265625 C24.69802734 34.75289062 24.69802734 34.75289062 23.4375 35.25 C22.61121094 35.58515625 21.78492188 35.9203125 20.93359375 36.265625 C20.29550781 36.50796875 19.65742188 36.7503125 19 37 C19 39.31 19 41.62 19 44 C21.31 44.66 23.62 45.32 26 46 C26 46.66 26 47.32 26 48 C27.65 48.33 29.3 48.66 31 49 C30.67 51.97 30.34 54.94 30 58 C26.37 57.67 22.74 57.34 19 57 C19 55.68 19 54.36 19 53 C15.07925671 50.38617114 11.55488983 50.70613614 7 51 C4.68436913 52.88500271 4.68436913 52.88500271 4.75 56 C4.68436913 59.11499729 4.68436913 59.11499729 7 61 C9.37098906 61.28108663 9.37098906 61.28108663 12 61.1875 C12.886875 61.18105469 13.77375 61.17460937 14.6875 61.16796875 C17.02606345 61.14581927 17.02606345 61.14581927 19 60 C21.125 60.9375 21.125 60.9375 23 62 C22.75 64.375 22.75 64.375 22 67 C19.9375 68.3125 19.9375 68.3125 18 69 C17.67 67.35 17.34 65.7 17 64 C14.69 64 12.38 64 10 64 C10.5259375 65.3303125 10.5259375 65.3303125 11.0625 66.6875 C12.02707262 70.0956566 12.19010535 71.70432364 11 75 C7.77856724 77.14762184 6.7404533 77.561068 3 77 C0.52502115 74.61392719 0.02141954 73.19310287 -0.36076355 69.74761963 C-0.35410172 68.45966492 -0.34743988 67.17171021 -0.34057617 65.84472656 C-0.34101425 65.13213181 -0.34145233 64.41953705 -0.34190369 63.68534851 C-0.33981851 61.33682579 -0.3165012 58.98902255 -0.29296875 56.640625 C-0.28737181 55.00966787 -0.28310217 53.37870568 -0.28010559 51.7477417 C-0.26866449 47.46012386 -0.23920378 43.17281207 -0.20599365 38.88531494 C-0.17527685 34.50822082 -0.16159682 30.13107714 -0.14648438 25.75390625 C-0.11433324 17.16913057 -0.06314595 8.58460338 0 0 Z " fill="#F9F3E7" transform="translate(284,167)"/>
<path d="M0 0 C0.99 0.33 1.98 0.66 3 1 C3 3.31 3 5.62 3 8 C3.598125 8.226875 4.19625 8.45375 4.8125 8.6875 C7.70715882 10.42429529 8.63035715 11.9183036 10 15 C10.53255319 19.97049643 10.1529475 23.05881562 7 27 C4.8125 28.3125 4.8125 28.3125 3 29 C3.061875 30.216875 3.12375 31.43375 3.1875 32.6875 C3.16667412 36.60970692 2.67434362 38.96907723 0 42 C-3.1875 43.3125 -3.1875 43.3125 -6 44 C-6 45.65 -6 47.3 -6 49 C-6.66 49 -7.32 49 -8 49 C-8.433125 49.928125 -8.433125 49.928125 -8.875 50.875 C-10 53 -10 53 -12 55 C-15.125 55.125 -15.125 55.125 -18 55 C-18.0825 55.5775 -18.165 56.155 -18.25 56.75 C-19.2563576 59.76907279 -20.46536649 61.08189897 -23 63 C-26.25 63.25 -26.25 63.25 -29 63 C-29 62.34 -29 61.68 -29 61 C-29.99 60.67 -30.98 60.34 -32 60 C-31.45730469 59.81824219 -30.91460937 59.63648438 -30.35546875 59.44921875 C-29.64003906 59.19785156 -28.92460937 58.94648438 -28.1875 58.6875 C-27.47980469 58.44386719 -26.77210938 58.20023438 -26.04296875 57.94921875 C-23.76832477 56.8923574 -22.4886841 56.02308352 -21 54 C-20.85212983 51.92939512 -20.85212983 51.92939512 -21.3125 49.8125 C-21.539375 48.554375 -21.76625 47.29625 -22 46 C-21.34 46 -20.68 46 -20 46 C-19.67 47.32 -19.34 48.64 -19 50 C-16.9375006 48.18777466 -16.9375006 48.18777466 -15 46 C-15 45.01 -15 44.02 -15 43 C-16.94603274 42.40929986 -16.94603274 42.40929986 -19 42 C-19.495 42.495 -19.495 42.495 -20 43 C-22.1796875 43.203125 -22.1796875 43.203125 -24.875 43.25 C-25.75929688 43.27578125 -26.64359375 43.3015625 -27.5546875 43.328125 C-30 43 -30 43 -31.796875 41.671875 C-33.66103405 39.08142021 -33.3867669 37.09413521 -33 34 C-32 32.125 -32 32.125 -30 31 C-25.82022376 30.60192607 -23.24651068 30.37674466 -19.5 32.25 C-18 34 -18 34 -18 38 C-16.01432292 37.96744792 -14.02864583 37.93489583 -12.04296875 37.90234375 C-10 38 -10 38 -7 39 C-7 36.03 -7 33.06 -7 30 C-8.32 29.67 -9.64 29.34 -11 29 C-11 28.34 -11 27.68 -11 27 C-11.94875 27.04125 -12.8975 27.0825 -13.875 27.125 C-17 27 -17 27 -19 25 C-19.25 21.5 -19.25 21.5 -19 18 C-17 16 -17 16 -14.43359375 15.76953125 C-12.95052734 15.79080078 -12.95052734 15.79080078 -11.4375 15.8125 C-10.44621094 15.81894531 -9.45492188 15.82539063 -8.43359375 15.83203125 C-6 16 -6 16 -5 17 C-4.85884839 19.67058851 -4.95752893 22.32432238 -5 25 C-3.35 25 -1.7 25 0 25 C0 24.34 0 23.68 0 23 C0.99 23 1.98 23 3 23 C4.60355101 19.49223216 5.22036864 16.85645121 5 13 C2.69 12.34 0.38 11.68 -2 11 C-2.33 9.68 -2.66 8.36 -3 7 C-2.34 6.67 -1.68 6.34 -1 6 C-0.34227572 2.97065509 -0.34227572 2.97065509 0 0 Z " fill="#413FD9" transform="translate(321,186)"/>
<path d="M0 0 C1.299375 0.433125 1.299375 0.433125 2.625 0.875 C1.8825 1.431875 1.14 1.98875 0.375 2.5625 C-2.32100849 4.82959804 -4.37251656 6.98252392 -6.375 9.875 C-6.375 10.865 -6.375 11.855 -6.375 12.875 C-8.025 13.205 -9.675 13.535 -11.375 13.875 C-11.705 15.855 -12.035 17.835 -12.375 19.875 C-10.71885343 20.25718767 -9.05042976 20.58895102 -7.375 20.875 C-7.045 20.545 -6.715 20.215 -6.375 19.875 C-4.4140625 19.70703125 -4.4140625 19.70703125 -2 19.6875 C-1.20851562 19.67332031 -0.41703125 19.65914062 0.3984375 19.64453125 C2.625 19.875 2.625 19.875 5.625 21.875 C6.01691116 24.94497072 6.09771848 26.98865285 4.625 29.75 C1.42170637 31.55185267 -1.83872523 31.40864307 -5.375 30.875 C-7.875 29.5625 -7.875 29.5625 -9.375 27.875 C-9.375 26.885 -9.375 25.895 -9.375 24.875 C-13.005 24.875 -16.635 24.875 -20.375 24.875 C-20.705 27.515 -21.035 30.155 -21.375 32.875 C-20.055 32.875 -18.735 32.875 -17.375 32.875 C-17.375 33.865 -17.375 34.855 -17.375 35.875 C-15.704375 35.813125 -15.704375 35.813125 -14 35.75 C-10.375 35.875 -10.375 35.875 -8.375 37.875 C-8 40.8125 -8 40.8125 -8.375 43.875 C-9.875 45.75 -9.875 45.75 -12.375 46.875 C-15.84900235 47.24574333 -19.18158374 47.47170813 -22.375 45.875 C-22.5 39.125 -22.5 39.125 -21.375 36.875 C-25.44598293 37.65362051 -25.44598293 37.65362051 -29.375 38.875 C-30.81137698 40.82663118 -30.81137698 40.82663118 -31.375 42.875 C-32.365 43.37 -32.365 43.37 -33.375 43.875 C-33.375 45.195 -33.375 46.515 -33.375 47.875 C-28.425 49.36 -28.425 49.36 -23.375 50.875 C-23.87 53.35 -23.87 53.35 -24.375 55.875 C-25.86 56.37 -25.86 56.37 -27.375 56.875 C-26.88 57.968125 -26.385 59.06125 -25.875 60.1875 C-24.375 63.875 -24.375 63.875 -24.375 66.875 C-26.70258311 65.94396676 -28.11857132 65.22117872 -29.625 63.1875 C-30.64595909 60.03954282 -30.50132947 57.15956632 -30.375 53.875 C-31.2721875 53.7821875 -31.2721875 53.7821875 -32.1875 53.6875 C-34.375 52.875 -34.375 52.875 -36.125 50.9375 C-37.91525764 46.55136877 -38.21685725 42.5434811 -37.375 37.875 C-35 34.75 -35 34.75 -32.375 32.875 C-31.715 32.875 -31.055 32.875 -30.375 32.875 C-30.478125 31.67875 -30.58125 30.4825 -30.6875 29.25 C-30.69344896 25.90073467 -30.21781259 24.06791582 -28.125 21.4375 C-24.55458783 18.11052502 -24.55458783 18.11052502 -21.375 17.875 C-21.478125 17.153125 -21.58125 16.43125 -21.6875 15.6875 C-21.375 12.875 -21.375 12.875 -19.3125 10.1875 C-16.375 7.875 -16.375 7.875 -12.9375 6.9375 C-9.30756017 5.85488637 -8.66240645 5.36959217 -6.3125 2.6875 C-3.7727825 -0.13973269 -3.7727825 -0.13973269 0 0 Z " fill="#403FDA" transform="translate(188.375,161.125)"/>
<path d="M0 0 C0.99 0.33 1.98 0.66 3 1 C2.95875 2.093125 2.9175 3.18625 2.875 4.3125 C2.67925334 8.08892229 2.67925334 8.08892229 5 11 C8.58357241 11.25015873 8.58357241 11.25015873 12 11 C12 12.32 12 13.64 12 15 C11.01 15.495 11.01 15.495 10 16 C9.83318891 18.91652174 9.83318891 18.91652174 10 22 C10.66 22.66 11.32 23.32 12 24 C15.70231027 23.83545288 17.58432166 23.33254267 20.5 21 C23.46620066 18.62703947 25.20868046 18 29 18 C31.4375 19.625 31.4375 19.625 33 22 C33.08889402 25.55576062 32.25520364 26.7302133 29.8125 29.3125 C26.5342501 31.27944994 24.75963342 31.50128446 21 31 C20.34 30.34 19.68 29.68 19 29 C19.33 30.32 19.66 31.64 20 33 C23.32534757 34.10844919 25.62182575 33.84454356 29 33 C28.95875 34.11375 28.9175 35.2275 28.875 36.375 C28.58878141 40.04366025 28.58878141 40.04366025 31 42 C33.21072977 42.24253813 33.21072977 42.24253813 35.625 42.125 C36.44226563 42.10695312 37.25953125 42.08890625 38.1015625 42.0703125 C38.72804687 42.04710937 39.35453125 42.02390625 40 42 C38.84826645 44.46800047 37.95216435 46.04783565 36 48 C34.9790625 48.2475 34.9790625 48.2475 33.9375 48.5 C32.9784375 48.7475 32.9784375 48.7475 32 49 C31.505 49.99 31.505 49.99 31 51 C28.33289346 50.84759391 26.5494129 50.50635081 24.5546875 48.66796875 C21 44.49375 21 44.49375 21 42 C19.9275 41.938125 18.855 41.87625 17.75 41.8125 C14 41 14 41 11.5625 38.75 C9.89708801 35.8188749 9.62224107 34.3053906 10 31 C8.35 30.67 6.7 30.34 5 30 C4.24758891 26.34543185 3.59950296 22.68266103 3 19 C3.99 18.34 4.98 17.68 6 17 C6.72382467 14.94074861 6.72382467 14.94074861 7 13 C5.01432292 12.8046875 3.02864583 12.609375 1.04296875 12.4140625 C-1 12 -1 12 -4 10 C-3.49019669 6.22745547 -2.79299818 4.55012877 0 2 C0 1.34 0 0.68 0 0 Z " fill="#6D88E5" transform="translate(158,199)"/>
<path d="M0 0 C0.33 0.66 0.66 1.32 1 2 C1.66 2 2.32 2 3 2 C3 1.34 3 0.68 3 0 C14.68111207 -0.86313636 14.68111207 -0.86313636 18.75 2.4375 C19.27207031 2.89382812 19.79414063 3.35015625 20.33203125 3.8203125 C23.31025142 5.92668836 26.4307014 5.81214218 30 6 C30.33 5.01 30.66 4.02 31 3 C36.23955432 1.57103064 36.23955432 1.57103064 39.4375 3.375 C41.48475453 6.81438761 41.12989555 8.99961556 40.65234375 12.87890625 C39.88582466 15.37124077 39.05858382 16.42027141 37 18 C34 18.4375 34 18.4375 31 18 C30.566875 17.360625 30.13375 16.72125 29.6875 16.0625 C28.23699371 13.81671965 28.23699371 13.81671965 26.1015625 13.72265625 C25.34617188 13.69042969 24.59078125 13.65820312 23.8125 13.625 C18.90841202 13.32247509 16.54930383 11.45487776 12.86328125 8.3671875 C10.3545427 6.52639402 8.07062614 6.15353131 5 6 C5.10054687 7.09248047 5.10054687 7.09248047 5.203125 8.20703125 C4.95108513 11.67257953 3.91581351 13.00753328 1.75 15.6875 C1.14671875 16.45449219 0.5434375 17.22148437 -0.078125 18.01171875 C-2.81650977 20.84472251 -4.81372769 21.94607853 -8.75 22.125 C-9.4925 22.08375 -10.235 22.0425 -11 22 C-10.505 20.515 -10.505 20.515 -10 19 C-8.824375 18.5359375 -8.824375 18.5359375 -7.625 18.0625 C-4.49940461 16.79737806 -3.70527307 15.8776483 -2 13 C-1.46221336 9.99368214 -1.46221336 9.99368214 -1.375 6.8125 C-1.08407643 1.08407643 -1.08407643 1.08407643 0 0 Z " fill="#485CDA" transform="translate(200,228)"/>
<path d="M0 0 C0.33 0 0.66 0 1 0 C1 15.84 1 31.68 1 48 C1.66 48 2.32 48 3 48 C3.33 41.4 3.66 34.8 4 28 C4.99 28 5.98 28 7 28 C7 32.62 7 37.24 7 42 C8.44375 41.87625 9.8875 41.7525 11.375 41.625 C12.18710938 41.55539063 12.99921875 41.48578125 13.8359375 41.4140625 C16.20334191 41.17107412 16.20334191 41.17107412 18 39 C21.13704316 38.666272 23.16554166 38.47150972 25.875 40.1875 C27.44442256 42.71601412 27.48921715 44.0646971 27 47 C25.4375 49.8125 25.4375 49.8125 23 52 C19.25 52.3125 19.25 52.3125 16 52 C15.34 50.68 14.68 49.36 14 48 C11.69 48 9.38 48 7 48 C7 50.97 7 53.94 7 57 C8.65 57 10.3 57 12 57 C12 57.33 12 57.66 12 58 C9.69 58 7.38 58 5 58 C5 58.66 5 59.32 5 60 C4.01 59.67 3.02 59.34 2 59 C1.67 62.96 1.34 66.92 1 71 C0.67 71 0.34 71 0 71 C0 47.57 0 24.14 0 0 Z " fill="#6487DE" transform="translate(198,170)"/>
<path d="M0 0 C2.97 0.495 2.97 0.495 6 1 C5.67 3.64 5.34 6.28 5 9 C7.31 9 9.62 9 12 9 C13.32229189 11.64458379 13.09677194 13.67761301 13.0625 16.625 C13.05347656 17.62789062 13.04445313 18.63078125 13.03515625 19.6640625 C13.02355469 20.43492187 13.01195312 21.20578125 13 22 C13.9075 21.95875 14.815 21.9175 15.75 21.875 C18.8782046 21.99531556 20.38614006 22.3914708 23 24 C22.5020163 27.73487777 22.12508244 29.81237635 20 33 C19.01 33 18.02 33 17 33 C17 33.66 17 34.32 17 35 C15.35 35 13.7 35 12 35 C11.67 32.36 11.34 29.72 11 27 C8.03 26.67 5.06 26.34 2 26 C5 24 5 24 8 24 C8.33 22.35 8.66 20.7 9 19 C9.66 19 10.32 19 11 19 C10.81535634 14.65815798 10.81535634 14.65815798 9 11 C3.86472005 10.49657629 3.86472005 10.49657629 -0.5 12.9375 C-1.325 13.618125 -2.15 14.29875 -3 15 C-8.97407913 16.54502046 -8.97407913 16.54502046 -12 14.9375 C-13 13 -13 13 -13.0625 10.0625 C-12 7 -12 7 -9.3125 4.5625 C-5.54508393 2.78541695 -3.930678 2.81165549 0 4 C0.33 4.33 0.66 4.66 1 5 C0.67 3.35 0.34 1.7 0 0 Z " fill="#809DE2" transform="translate(304,176)"/>
<path d="M0 0 C4.35471644 0.44285252 5.36008242 1.68137624 8.6875 4.375 C10.8129838 4.94682918 10.8129838 4.94682918 13.125 5.3125 C16.4320473 5.92025207 18.37312404 6.61672775 20.875 8.875 C23.79181311 11.46772276 25.95463661 12.3973453 29.6875 13.375 C29.6875 14.035 29.6875 14.695 29.6875 15.375 C30.3475 16.035 31.0075 16.695 31.6875 17.375 C29.99279665 19.06970335 27.94728877 18.70708662 25.625 18.8125 C20.08537493 18.79816721 17.61887829 17.35296647 13.546875 13.77734375 C10.66338633 11.60261175 8.236871 11.52289046 4.6875 11.375 C4.3575 12.365 4.0275 13.355 3.6875 14.375 C-1.55205432 15.80396936 -1.55205432 15.80396936 -4.75 14 C-6.81469564 10.53131132 -6.39901824 8.30285343 -5.8671875 4.3984375 C-4.87726205 0.78730101 -3.64441314 0.41257507 0 0 Z " fill="#5062DA" transform="translate(247.3125,163.625)"/>
<path d="M0 0 C2.80338135 2.80338135 3.95596681 6.21750248 5.4765625 9.81640625 C5.80667328 10.58806625 6.13678406 11.35972626 6.47689819 12.1547699 C7.17338811 13.78540082 7.86755427 15.41702595 8.55957031 17.04956055 C9.62311379 19.55805116 10.69373297 22.06342637 11.765625 24.56835938 C12.44051995 26.15086441 13.11501299 27.73354092 13.7890625 29.31640625 C14.11089508 30.07055313 14.43272766 30.82470001 14.76431274 31.60169983 C17 36.88321311 17 36.88321311 17 38 C15.35 38 13.7 38 12 38 C10.99539469 35.87717331 9.99644398 33.75166979 9 31.625 C8.443125 30.44164062 7.88625 29.25828125 7.3125 28.0390625 C6 25 6 25 6 23 C0.72 23.33 -4.56 23.66 -10 24 C-9.26825333 20.34126663 -8.65727202 17.88708371 -7.1875 14.609375 C-6.83429688 13.81789063 -6.48109375 13.02640625 -6.1171875 12.2109375 C-5.56417969 10.99277344 -5.56417969 10.99277344 -5 9.75 C-4.44699219 8.50863281 -4.44699219 8.50863281 -3.8828125 7.2421875 C-1.14332217 1.14332217 -1.14332217 1.14332217 0 0 Z " fill="#1C1C31" transform="translate(184,265)"/>
<path d="M0 0 C8 0 8 0 10.5625 1.625 C12 4 12 4 11.75 7.25 C11.5025 8.1575 11.255 9.065 11 10 C11.7425 9.649375 12.485 9.29875 13.25 8.9375 C16.16209794 7.94473934 17.21069033 7.8458029 20 9 C20.66 9.66 21.32 10.32 22 11 C21.625 13.125 21.625 13.125 21 15 C20.01 14.34 19.02 13.68 18 13 C14.41011248 13.3778829 11.30342709 14.58424553 8 16 C8 16.9075 8 17.815 8 18.75 C8 21.16666667 8 23.58333333 8 26 C4.04 27.98 4.04 27.98 0 30 C0 20.1 0 10.2 0 0 Z " fill="#FBF5E7" transform="translate(284,167)"/>
<path d="M0 0 C0.66 0 1.32 0 2 0 C2.02465881 3.96930989 2.04284023 7.93859034 2.05493164 11.90795898 C2.05997057 13.25920386 2.06680177 14.61044326 2.07543945 15.96166992 C2.08752419 17.90020434 2.09269828 19.838778 2.09765625 21.77734375 C2.10551147 23.52905884 2.10551147 23.52905884 2.11352539 25.31616211 C2 28 2 28 1 29 C-6.10961214 29.45868465 -6.10961214 29.45868465 -9.0625 27.9375 C-10.55238061 24.8584134 -9.67482518 22.25143042 -9 19 C-9.7425 19.350625 -10.485 19.70125 -11.25 20.0625 C-14.16209794 21.05526066 -15.21069033 21.1541971 -18 20 C-18.66 19.34 -19.32 18.68 -20 18 C-19.625 15.875 -19.625 15.875 -19 14 C-18.34 14.66 -17.68 15.32 -17 16 C-14.12762267 16.58442963 -14.12762267 16.58442963 -11 16 C-7.95726583 13.9575649 -7.95726583 13.9575649 -6 11 C-6.13136656 8.175619 -6.74737631 6.50524739 -8 4 C-7.236875 3.896875 -6.47375 3.79375 -5.6875 3.6875 C-2.78105605 2.94399108 -1.96433971 2.15141968 0 0 Z " fill="#FCF5E7" transform="translate(196,213)"/>
<path d="M0 0 C0.33 0 0.66 0 1 0 C1.04953687 4.19920237 1.08578411 8.39824869 1.10986328 12.59765625 C1.11990427 14.02542078 1.13353981 15.45316483 1.15087891 16.88085938 C1.17521152 18.93624941 1.18650202 20.99136692 1.1953125 23.046875 C1.20578613 24.28276367 1.21625977 25.51865234 1.22705078 26.79199219 C1 30 1 30 -1 34 C-1 30.04 -1 26.08 -1 22 C-2.753125 22.103125 -4.50625 22.20625 -6.3125 22.3125 C-7.29863281 22.37050781 -8.28476562 22.42851562 -9.30078125 22.48828125 C-12.35203979 23.06673982 -12.94037179 23.82530876 -15 26 C-17.79881044 26.5154245 -20.11759395 26.22876238 -23 26 C-25 24 -25 24 -25.375 20.5625 C-25 17 -25 17 -23.375 15.0625 C-20.33957342 13.704546 -18.29238472 13.57969557 -15 14 C-14.55140625 14.48855469 -14.1028125 14.97710937 -13.640625 15.48046875 C-11.41720701 17.53977732 -9.79780428 17.49364907 -6.8125 17.6875 C-5.91144531 17.75324219 -5.01039063 17.81898438 -4.08203125 17.88671875 C-3.39496094 17.92410156 -2.70789063 17.96148437 -2 18 C-1.90912109 16.17662109 -1.90912109 16.17662109 -1.81640625 14.31640625 C-1.73201668 12.73175772 -1.6473679 11.14712298 -1.5625 9.5625 C-1.52318359 8.76005859 -1.48386719 7.95761719 -1.44335938 7.13085938 C-1.11328125 1.11328125 -1.11328125 1.11328125 0 0 Z " fill="#4A60DB" transform="translate(282,193)"/>
<path d="M0 0 C0.66 0.33 1.32 0.66 2 1 C2 1.33 2 1.66 2 2 C2.66 2.33 3.32 2.66 4 3 C4.33 3.66 4.66 4.32 5 5 C-2.21072388 11.27102848 -2.21072388 11.27102848 -7.3125 11.6875 C-11.36584525 12.03100383 -11.43418974 12.317562 -14 15 C-17 15.4375 -17 15.4375 -20 15 C-21.875 13.4375 -21.875 13.4375 -23 11 C-23.3125 7.375 -23.3125 7.375 -23 4 C-21 2 -21 2 -17.5625 1.75 C-14 2 -14 2 -11 4 C-7.00453212 4.52114798 -5.47680735 4.33169207 -2.125 2 C-1.42375 1.34 -0.7225 0.68 0 0 Z " fill="#6280D8" transform="translate(265,228)"/>
<path d="M0 0 C8.07352941 1.31108597 8.07352941 1.31108597 11.4375 3.8125 C13 6 13 6 13.875 8.5 C15.42181357 11.9373635 17.90452089 12.95830102 21 15 C21.875 17.25 21.875 17.25 22 19 C21.67 19 21.34 19 21 19 C20.34 20.98 19.68 22.96 19 25 C18.34 25 17.68 25 17 25 C17.33 25.99 17.66 26.98 18 28 C20.32206525 28.70491267 22.65593068 29.37212429 25 30 C25.33 30.66 25.66 31.32 26 32 C22.7 31.34 19.4 30.68 16 30 C15.18279507 26.73118027 14.88926457 24.53000931 14.9375 21.25 C14.94652344 20.45078125 14.95554687 19.6515625 14.96484375 18.828125 C14.97644531 18.22484375 14.98804688 17.6215625 15 17 C12.69 17 10.38 17 8 17 C8.33 14.36 8.66 11.72 9 9 C7.906875 8.87625 6.81375 8.7525 5.6875 8.625 C2 8 2 8 -1 6 C-0.67 4.02 -0.34 2.04 0 0 Z " fill="#587BDD" transform="translate(301,168)"/>
<path d="M0 0 C0.99 0.33 1.98 0.66 3 1 C3 3.31 3 5.62 3 8 C3.598125 8.226875 4.19625 8.45375 4.8125 8.6875 C7.70715882 10.42429529 8.63035715 11.9183036 10 15 C10.53255319 19.97049643 10.1529475 23.05881562 7 27 C4.8125 28.3125 4.8125 28.3125 3 29 C3.061875 30.216875 3.12375 31.43375 3.1875 32.6875 C3.18059484 36.58200811 2.58853605 38.94922537 0 42 C-2.1875 42.8125 -2.1875 42.8125 -4 43 C-4 42.34 -4 41.68 -4 41 C-4.99 40.67 -5.98 40.34 -7 40 C-5.02 39.34 -3.04 38.68 -1 38 C-1 35.36 -1 32.72 -1 30 C-1.639375 29.896875 -2.27875 29.79375 -2.9375 29.6875 C-3.618125 29.460625 -4.29875 29.23375 -5 29 C-5.33 28.01 -5.66 27.02 -6 26 C-5.195625 25.87625 -4.39125 25.7525 -3.5625 25.625 C-2.716875 25.41875 -1.87125 25.2125 -1 25 C-0.67 24.34 -0.34 23.68 0 23 C0.99 23 1.98 23 3 23 C4.60355101 19.49223216 5.22036864 16.85645121 5 13 C2.69 12.34 0.38 11.68 -2 11 C-2.33 9.68 -2.66 8.36 -3 7 C-2.34 6.67 -1.68 6.34 -1 6 C-0.34227572 2.97065509 -0.34227572 2.97065509 0 0 Z " fill="#3A38DA" transform="translate(321,186)"/>
<path d="M0 0 C2.6875 0.3125 2.6875 0.3125 5 1.875 C7.31976055 5.22576523 7.26754676 7.32467855 6.6875 11.3125 C5 13.3125 5 13.3125 2.6875 14.3125 C-0.81860679 14.0559556 -2.3403901 13.2939066 -5.3125 11.3125 C-9.26889146 10.79644894 -10.7921151 10.93403826 -14.0625 13.3125 C-14.805 13.9725 -15.5475 14.6325 -16.3125 15.3125 C-16.9725 15.3125 -17.6325 15.3125 -18.3125 15.3125 C-17.74649683 11.35047781 -17.04800186 8.30445516 -14.3125 5.3125 C-11.27156593 4.88039569 -8.3630022 5.02471677 -5.3125 5.3125 C-5.003125 4.673125 -4.69375 4.03375 -4.375 3.375 C-2.83362676 0.38292254 -2.83362676 0.38292254 0 0 Z " fill="#4870D4" transform="translate(233.3125,165.6875)"/>
<path d="M0 0 C1.98 0 3.96 0 6 0 C5.01 0.86625 5.01 0.86625 4 1.75 C1.55709077 3.99653977 1.55709077 3.99653977 2 8 C3.65614657 8.38218767 5.32457024 8.71395102 7 9 C7.33 8.67 7.66 8.34 8 8 C9.9609375 7.83203125 9.9609375 7.83203125 12.375 7.8125 C13.16648438 7.79832031 13.95796875 7.78414062 14.7734375 7.76953125 C17 8 17 8 20 10 C20.39191116 13.06997072 20.47271848 15.11365285 19 17.875 C15.79670637 19.67685267 12.53627477 19.53364307 9 19 C6.5 17.6875 6.5 17.6875 5 16 C5 15.01 5 14.02 5 13 C2.36 13 -0.28 13 -3 13 C-1.68 12.34 -0.36 11.68 1 11 C0.175 10.608125 -0.65 10.21625 -1.5 9.8125 C-2.325 9.214375 -3.15 8.61625 -4 8 C-4.3125 5.3125 -4.3125 5.3125 -4 3 C-2.68 2.34 -1.36 1.68 0 1 C0 0.67 0 0.34 0 0 Z " fill="#4657DB" transform="translate(174,173)"/>
<path d="M0 0 C2.20703125 -0.46875 2.20703125 -0.46875 5 0 C6.96957141 2.26261095 8.28994314 4.85726044 9.6875 7.5 C11.07343404 10.04278807 12.4979049 12.52110043 14 15 C14.66 15 15.32 15 16 15 C16.07089844 15.83015625 16.14179688 16.6603125 16.21484375 17.515625 C17.20219483 21.89730244 19.15940989 25.00368188 21.5625 28.75 C26 35.76650228 26 35.76650228 26 38 C23.76953125 37.91015625 23.76953125 37.91015625 21 37 C19.32791221 34.80264903 18.01269184 32.82385114 16.6875 30.4375 C16.14899414 29.51420898 16.14899414 29.51420898 15.59960938 28.57226562 C14.71841217 27.05660643 13.85720523 25.52935624 13 24 C12.01 24.33 11.02 24.66 10 25 C10.1546875 23.78570312 10.1546875 23.78570312 10.3125 22.546875 C9.87593875 17.59190477 7.62695892 14.38923528 5 10.25 C4.05889922 8.73660821 3.12121763 7.22108309 2.1875 5.703125 C1.76855469 5.03958008 1.34960938 4.37603516 0.91796875 3.69238281 C0 2 0 2 0 0 Z " fill="#403EBE" transform="translate(288,265)"/>
<path d="M0 0 C2.19921875 0.00390625 2.19921875 0.00390625 5 1 C6.97867978 3.44162778 8.36756576 6.15582127 9.8125 8.9375 C10.21919922 9.67935547 10.62589844 10.42121094 11.04492188 11.18554688 C14 16.66361607 14 16.66361607 14 19 C14.66 19 15.32 19 16 19 C16.33 18.01 16.66 17.02 17 16 C17.33 16.66 17.66 17.32 18 18 C17.67 18.66 17.34 19.32 17 20 C16.84995027 21.3734635 16.75161994 22.7528526 16.68359375 24.1328125 C16.64169922 24.93847656 16.59980469 25.74414062 16.55664062 26.57421875 C16.51732422 27.41597656 16.47800781 28.25773437 16.4375 29.125 C16.39431641 29.97449219 16.35113281 30.82398438 16.30664062 31.69921875 C16.20045764 33.79928223 16.09971503 35.89961948 16 38 C14.35 38 12.7 38 11 38 C11.04382813 36.90945313 11.08765625 35.81890625 11.1328125 34.6953125 C11.24306452 22.21310866 7.69759938 13.95486349 0.90209961 3.59375 C0 2 0 2 0 0 Z " fill="#3D3B97" transform="translate(258,265)"/>
<path d="M0 0 C1.48306641 0.02126953 1.48306641 0.02126953 2.99609375 0.04296875 C3.98738281 0.04941406 4.97867187 0.05585938 6 0.0625 C8.43359375 0.23046875 8.43359375 0.23046875 9.43359375 1.23046875 C9.57474536 3.90105726 9.47606482 6.55479113 9.43359375 9.23046875 C10.75359375 9.56046875 12.07359375 9.89046875 13.43359375 10.23046875 C12.11359375 10.56046875 10.79359375 10.89046875 9.43359375 11.23046875 C9.43359375 12.22046875 9.43359375 13.21046875 9.43359375 14.23046875 C10.09359375 14.23046875 10.75359375 14.23046875 11.43359375 14.23046875 C11.10359375 16.54046875 10.77359375 18.85046875 10.43359375 21.23046875 C9.44359375 21.56046875 8.45359375 21.89046875 7.43359375 22.23046875 C7.43359375 19.59046875 7.43359375 16.95046875 7.43359375 14.23046875 C6.11359375 13.90046875 4.79359375 13.57046875 3.43359375 13.23046875 C3.43359375 12.57046875 3.43359375 11.91046875 3.43359375 11.23046875 C2.48484375 11.27171875 1.53609375 11.31296875 0.55859375 11.35546875 C-2.56640625 11.23046875 -2.56640625 11.23046875 -4.56640625 9.23046875 C-4.81640625 5.73046875 -4.81640625 5.73046875 -4.56640625 2.23046875 C-2.56640625 0.23046875 -2.56640625 0.23046875 0 0 Z " fill="#3D5BDB" transform="translate(306.56640625,201.76953125)"/>
<path d="M0 0 C0.33 0 0.66 0 1 0 C1 2.31 1 4.62 1 7 C2.32 7 3.64 7 5 7 C5 7.99 5 8.98 5 10 C6.11375 9.95875 7.2275 9.9175 8.375 9.875 C12 10 12 10 14 12 C14.375 14.9375 14.375 14.9375 14 18 C12.5 19.875 12.5 19.875 10 21 C6.52599765 21.37074333 3.19341626 21.59670813 0 20 C-0.125 13.25 -0.125 13.25 1 11 C-0.65 11 -2.3 11 -4 11 C-2.68 10.34 -1.36 9.68 0 9 C-0.66 8.01 -1.32 7.02 -2 6 C-1.45945946 1.45945946 -1.45945946 1.45945946 0 0 Z " fill="#6F79DE" transform="translate(166,187)"/>
<path d="M0 0 C0.99 0.66 1.98 1.32 3 2 C3 2.66 3 3.32 3 4 C5.31 4 7.62 4 10 4 C10 4.33 10 4.66 10 5 C8.02 5.66 6.04 6.32 4 7 C5.98 7.66 7.96 8.32 10 9 C10 9.33 10 9.66 10 10 C9.38511719 10.03738281 8.77023437 10.07476562 8.13671875 10.11328125 C6.92435547 10.21189453 6.92435547 10.21189453 5.6875 10.3125 C4.88699219 10.37050781 4.08648437 10.42851562 3.26171875 10.48828125 C0.60340739 11.08972993 -0.19338791 12.0329152 -2 14 C-4.5 14.4375 -4.5 14.4375 -7 14 C-8.875 12.4375 -8.875 12.4375 -10 10 C-9.87890756 6.54886548 -9.63213135 4.03137221 -7.8125 1.0625 C-5.11939495 -0.51621675 -3.05969475 -0.3187182 0 0 Z " fill="#6C8DD9" transform="translate(267,187)"/>
<path d="M0 0 C1.32 0 2.64 0 4 0 C4 11.88 4 23.76 4 36 C8.95 36 13.9 36 19 36 C19 36.33 19 36.66 19 37 C12.73 37 6.46 37 0 37 C0 24.79 0 12.58 0 0 Z " fill="#1A1965" transform="translate(236,266)"/>
<path d="M0 0 C1.32 0 2.64 0 4 0 C4 5.61 4 11.22 4 17 C8.29 17 12.58 17 17 17 C17 17.33 17 17.66 17 18 C12.71 18 8.42 18 4 18 C4 24.27 4 30.54 4 37 C2.68 37 1.36 37 0 37 C0 24.79 0 12.58 0 0 Z " fill="#1B1A4D" transform="translate(214,266)"/>
<path d="M0 0 C1.32 0 2.64 0 4 0 C4 12.21 4 24.42 4 37 C2.68 37 1.36 37 0 37 C0 24.79 0 12.58 0 0 Z " fill="#13133D" transform="translate(205,266)"/>
<path d="M0 0 C2 3 2 3 1.9375 5.4375 C0.66526261 8.91494885 -0.84311568 10.10586941 -4 12 C-7.125 12.5 -7.125 12.5 -10 12 C-12 10.375 -12 10.375 -13 8 C-12.39120383 4.27112346 -11.62358363 2.5369748 -8.75 0.0625 C-5.33280469 -1.25778001 -3.47674845 -1.08165507 0 0 Z " fill="#5265DD" transform="translate(189,218)"/>
<path d="M0 0 C2 3 2 3 2 5.4375 C0.55184448 9.14839852 -1.52210286 10.1941688 -5 12 C-7.99000015 12.48674421 -9.28604069 12.42837559 -11.875 10.875 C-13 9 -13 9 -13.0625 6.0625 C-12 3 -12 3 -9.3125 0.5625 C-5.52209172 -1.22542843 -3.93222069 -1.34052978 0 0 Z " fill="#4E63DC" transform="translate(304,180)"/>
<path d="M0 0 C1 1 1 1 1.375 4.375 C1 8 1 8 -1.125 9.9375 C-4.37667601 11.13920635 -6.56251876 11.44836712 -10 11 C-11.875 9.8125 -11.875 9.8125 -13 8 C-13.375 5.5 -13.375 5.5 -13 3 C-9.44004025 -1.746613 -5.3864745 -0.99749528 0 0 Z " fill="#727CE0" transform="translate(196,205)"/>
<path d="M0 0 C1.875 1.1875 1.875 1.1875 3 3 C3.4375 5.5 3.4375 5.5 3 8 C0.67479074 10.71274414 -1.71618225 11.27328701 -5.125 11.8125 C-6.40375 11.874375 -7.6825 11.93625 -9 12 C-11 10 -11 10 -11.4375 6.5625 C-11 3 -11 3 -8.875 1.0625 C-5.62332399 -0.13920635 -3.43748124 -0.44836712 0 0 Z " fill="#4957DB" transform="translate(296,193)"/>
<path d="M0 0 C-0.33 3.3 -0.66 6.6 -1 10 C0.27875 9.814375 1.5575 9.62875 2.875 9.4375 C6.75 8.875 6.75 8.875 9 10 C9.1875 12.375 9.1875 12.375 9 15 C6 17 6 17 2.5625 16.4375 C-1.40505149 14.83655817 -2.86538907 13.6715308 -5 10 C-5.25 7.1875 -5.25 7.1875 -5 5 C-6.65 4.67 -8.3 4.34 -10 4 C-9.625 2.0625 -9.625 2.0625 -9 0 C-5.93109813 -1.53445094 -3.29905734 -0.54984289 0 0 Z " fill="#5367DD" transform="translate(173,225)"/>
<path d="M0 0 C3.625 0.375 3.625 0.375 5.6875 2.5625 C6.625 5.375 6.625 5.375 5.8125 8.1875 C5.420625 8.909375 5.02875 9.63125 4.625 10.375 C3.965 10.375 3.305 10.375 2.625 10.375 C2.625 11.035 2.625 11.695 2.625 12.375 C0.975 12.375 -0.675 12.375 -2.375 12.375 C-2.375 13.035 -2.375 13.695 -2.375 14.375 C-3.365 14.045 -4.355 13.715 -5.375 13.375 C-6.74382012 8.85789361 -5.89882612 5.77716435 -4.375 1.375 C-3.375 0.375 -3.375 0.375 0 0 Z " fill="#5050DD" transform="translate(247.375,163.625)"/>
<path d="M0 0 C0.33 0.66 0.66 1.32 1 2 C1.66 2 2.32 2 3 2 C3.33 1.34 3.66 0.68 4 0 C6.475 0.495 6.475 0.495 9 1 C8.67 1.66 8.34 2.32 8 3 C5.4375 3.625 5.4375 3.625 3 4 C5.31 4.33 7.62 4.66 10 5 C10 5.33 10 5.66 10 6 C8.35 6 6.7 6 5 6 C5.10054687 7.09248047 5.10054687 7.09248047 5.203125 8.20703125 C4.95108513 11.67257953 3.91581351 13.00753328 1.75 15.6875 C1.14671875 16.45449219 0.5434375 17.22148437 -0.078125 18.01171875 C-2.81650977 20.84472251 -4.81372769 21.94607853 -8.75 22.125 C-9.4925 22.08375 -10.235 22.0425 -11 22 C-10.505 20.515 -10.505 20.515 -10 19 C-8.824375 18.5359375 -8.824375 18.5359375 -7.625 18.0625 C-4.49940461 16.79737806 -3.70527307 15.8776483 -2 13 C-1.46221336 9.99368214 -1.46221336 9.99368214 -1.375 6.8125 C-1.08407643 1.08407643 -1.08407643 1.08407643 0 0 Z " fill="#5670DC" transform="translate(200,228)"/>
<path d="M0 0 C-0.66 0.5775 -1.32 1.155 -2 1.75 C-4.44290923 3.99653977 -4.44290923 3.99653977 -4 8 C-0.7 8.99 2.6 9.98 6 11 C5.67 12.65 5.34 14.3 5 16 C4.01 16.33 3.02 16.66 2 17 C2.495 18.093125 2.99 19.18625 3.5 20.3125 C5 24 5 24 5 27 C2.67241689 26.06896676 1.25642868 25.34617872 -0.25 23.3125 C-1.27095909 20.16454282 -1.12632947 17.28456632 -1 14 C-1.598125 13.938125 -2.19625 13.87625 -2.8125 13.8125 C-5 13 -5 13 -6.875 10.875 C-8.4320914 6.89576643 -7.67442747 4.8584633 -6 1 C-2.8 -1.4 -2.8 -1.4 0 0 Z " fill="#464EDD" transform="translate(159,201)"/>
<path d="M0 0 C2.9375 0.875 2.9375 0.875 4.9375 3.875 C5.29134949 6.70579592 5.3295891 8.24330089 3.8125 10.6875 C1.03746189 12.44502414 -0.85179745 12.34322746 -4.0625 11.875 C-5.9375 10 -5.9375 10 -7.0625 7.875 C-7.0625 7.215 -7.0625 6.555 -7.0625 5.875 C-8.0525 5.545 -9.0425 5.215 -10.0625 4.875 C-9.464375 4.606875 -8.86625 4.33875 -8.25 4.0625 C-6.00570098 3.02351259 -6.00570098 3.02351259 -4.6875 1.1875 C-3.0625 -0.125 -3.0625 -0.125 0 0 Z " fill="#534FDC" transform="translate(235.0625,234.125)"/>
<path d="M0 0 C3.02952396 1.51476198 3.37093771 3.85368016 4.625 6.9375 C5.07101563 8.01902344 5.51703125 9.10054688 5.9765625 10.21484375 C7 13 7 13 7 15 C2.71 15 -1.58 15 -6 15 C-4.32819664 9.74576086 -2.62305301 4.87138415 0 0 Z " fill="#F6EFE0" transform="translate(182,272)"/>
<path d="M0 0 C1.299375 0.433125 1.299375 0.433125 2.625 0.875 C1.8825 1.431875 1.14 1.98875 0.375 2.5625 C-2.32100849 4.82959804 -4.37251656 6.98252392 -6.375 9.875 C-6.375 10.865 -6.375 11.855 -6.375 12.875 C-8.685 12.875 -10.995 12.875 -13.375 12.875 C-13.705 13.535 -14.035 14.195 -14.375 14.875 C-17.4375 15.5 -17.4375 15.5 -20.375 15.875 C-18.625 10.125 -18.625 10.125 -16.375 7.875 C-15.3025 7.6275 -14.23 7.38 -13.125 7.125 C-9.43866124 5.89622041 -8.70502526 5.42091277 -6.3125 2.6875 C-3.7727825 -0.13973269 -3.7727825 -0.13973269 0 0 Z " fill="#3F40DC" transform="translate(188.375,161.125)"/>
<path d="M0 0 C2.61336774 0.94371613 4.69406497 1.7362629 6.8125 3.5625 C10.08556547 5.71337159 13.1204668 5.67670557 17 6 C17.33 5.01 17.66 4.02 18 3 C20.75 2.25 20.75 2.25 24 2 C26.375 3.5625 26.375 3.5625 28 6 C28.25 9.25 28.25 9.25 28 12 C27.319375 11.154375 26.63875 10.30875 25.9375 9.4375 C23.20165918 6.60495992 23.20165918 6.60495992 19.625 7.1875 C18.42875 7.455625 17.2325 7.72375 16 8 C13.66700175 8.03954234 11.33291811 8.04401732 9 8 C7.68 8 6.36 8 5 8 C2.75324658 6.55713083 0.98682015 4.80620014 -1 3 C-0.67 2.01 -0.34 1.02 0 0 Z " fill="#6B7EDD" transform="translate(213,228)"/>
<path d="M0 0 C0.99 0 1.98 0 3 0 C3 4.62 3 9.24 3 14 C4.44375 13.87625 5.8875 13.7525 7.375 13.625 C8.18710938 13.55539063 8.99921875 13.48578125 9.8359375 13.4140625 C12.20334191 13.17107412 12.20334191 13.17107412 14 11 C17.13704316 10.666272 19.16554166 10.47150972 21.875 12.1875 C23.34781139 14.56036279 23.22223194 16.25913944 23 19 C22.278125 18.154375 21.55625 17.30875 20.8125 16.4375 C18.29755258 13.72029008 18.29755258 13.72029008 15.4375 14 C12.94344793 14.88611674 12.94344793 14.88611674 11 16.625 C9 18 9 18 6.5 17.75 C5.675 17.5025 4.85 17.255 4 17 C2.68 16.67 1.36 16.34 0 16 C0 10.72 0 5.44 0 0 Z " fill="#708DD9" transform="translate(202,198)"/>
<path d="M0 0 C2 3 2 3 2.1875 5.5 C2.455625 6.325 2.72375 7.15 3 8 C6.47307328 9.86983745 6.47307328 9.86983745 10 11 C10 11.33 10 11.66 10 12 C8.96939453 12.05607422 8.96939453 12.05607422 7.91796875 12.11328125 C7.01691406 12.17902344 6.11585938 12.24476563 5.1875 12.3125 C4.29417969 12.37050781 3.40085938 12.42851562 2.48046875 12.48828125 C-0.34108797 13.07036618 -1.31513459 13.69439471 -3 16 C-3.25069913 18.62570704 -3.25069913 18.62570704 -3 21 C-4.32 21 -5.64 21 -7 21 C-7.49557522 14.68141593 -7.49557522 14.68141593 -5 11.25 C-4.01 10.13625 -4.01 10.13625 -3 9 C-3 8.01 -3 7.02 -3 6 C-2.34 6 -1.68 6 -1 6 C-1.020625 5.195625 -1.04125 4.39125 -1.0625 3.5625 C-1 1 -1 1 0 0 Z " fill="#4B49D8" transform="translate(168,173)"/>
<path d="M0 0 C0.99 0.33 1.98 0.66 3 1 C3 3.31 3 5.62 3 8 C3.61875 8.2475 4.2375 8.495 4.875 8.75 C7.35068687 10.20628639 7.95125002 11.37812506 9 14 C8.67 14 8.34 14 8 14 C7.8453125 15.8871875 7.8453125 15.8871875 7.6875 17.8125 C7.35977911 20.35345923 7.15044886 21.76680427 5.75 23.9375 C3.54461398 25.27648437 1.54110939 25.65660684 -1 26 C-0.67 25.01 -0.34 24.02 0 23 C0.99 23 1.98 23 3 23 C4.60355101 19.49223216 5.22036864 16.85645121 5 13 C2.69 12.34 0.38 11.68 -2 11 C-2.33 9.68 -2.66 8.36 -3 7 C-2.34 6.67 -1.68 6.34 -1 6 C-0.34227572 2.97065509 -0.34227572 2.97065509 0 0 Z " fill="#4548DC" transform="translate(321,186)"/>
<path d="M0 0 C-0.75 2.4375 -0.75 2.4375 -2 5 C-3.33076989 5.34342449 -4.66431979 5.67619874 -6 6 C-7.60907108 8.37612865 -7.60907108 8.37612865 -9 11 C-10.3125 12.8125 -10.3125 12.8125 -12 14 C-15.1875 14.1875 -15.1875 14.1875 -18 14 C-18 13.34 -18 12.68 -18 12 C-18.99 11.67 -19.98 11.34 -21 11 C-20.45730469 10.81824219 -19.91460937 10.63648438 -19.35546875 10.44921875 C-18.64003906 10.19785156 -17.92460937 9.94648438 -17.1875 9.6875 C-16.12595703 9.32205078 -16.12595703 9.32205078 -15.04296875 8.94921875 C-12.85109073 7.93081271 -11.67201868 6.71034576 -10 5 C-9.34 5 -8.68 5 -8 5 C-8 4.01 -8 3.02 -8 2 C-2.25 0 -2.25 0 0 0 Z " fill="#3B39DB" transform="translate(310,235)"/>
<path d="M0 0 C2.5 1.8125 2.5 1.8125 5 4 C5 4.99 5 5.98 5 7 C4.34 7 3.68 7 3 7 C3.04125 8.11375 3.0825 9.2275 3.125 10.375 C3 14 3 14 1 16 C-0.32 16 -1.64 16 -3 16 C-3 13.36 -3 10.72 -3 8 C-3.99 7.67 -4.98 7.34 -6 7 C-5.34 6.67 -4.68 6.34 -4 6 C-3.34786708 3.97536745 -3.34786708 3.97536745 -3 2 C-2.01 2 -1.02 2 0 2 C0 1.34 0 0.68 0 0 Z " fill="#708BE4" transform="translate(298,161)"/>
<path d="M0 0 C3.0625 0.1875 3.0625 0.1875 5.0625 2.1875 C4.48557692 8.76442308 4.48557692 8.76442308 3.0625 10.1875 C0.125 10.375 0.125 10.375 -2.9375 10.1875 C-3.5975 9.5275 -4.2575 8.8675 -4.9375 8.1875 C-4.24305556 0.27083333 -4.24305556 0.27083333 0 0 Z " fill="#4659DC" transform="translate(296.9375,217.8125)"/>
<path d="M0 0 C1 1 2 2 3 3 C6.61023099 3.73041853 6.61023099 3.73041853 10 4 C10 4.33 10 4.66 10 5 C9.38511719 4.96519531 8.77023437 4.93039063 8.13671875 4.89453125 C7.32847656 4.86746094 6.52023437 4.84039062 5.6875 4.8125 C4.88699219 4.77769531 4.08648437 4.74289063 3.26171875 4.70703125 C0.49219624 5.06577769 -0.17105649 5.9844296 -2 8 C-4.125 7.8125 -4.125 7.8125 -6 7 C-6.33 6.34 -6.66 5.68 -7 5 C-6.67 7.31 -6.34 9.62 -6 12 C-7.32 11.34 -8.64 10.68 -10 10 C-10.48468708 3.57789614 -10.48468708 3.57789614 -8.375 1.0625 C-5.33957342 -0.295454 -3.29238472 -0.42030443 0 0 Z " fill="#6991D9" transform="translate(267,207)"/>
<path d="M0 0 C1.32 0.33 2.64 0.66 4 1 C4.48492623 7.42527261 4.48492623 7.42527261 2.3125 10 C-0.59380843 11.25678203 -2.01847768 10.94153336 -5 10 C-5.66 9.67 -6.32 9.34 -7 9 C-6.67 6.69 -6.34 4.38 -6 2 C-4.02 2 -2.04 2 0 2 C0 1.34 0 0.68 0 0 Z " fill="#6C82D6" transform="translate(236,169)"/>
<path d="M0 0 C1.98 0 3.96 0 6 0 C5.67 2.97 5.34 5.94 5 9 C7.31 9.33 9.62 9.66 12 10 C8.55549263 12.29633824 6.06187717 12.54016485 2 13 C-0.53752812 10.35674154 -0.99195908 9.11659328 -1.25 5.375 C-1 2 -1 2 0 0 Z " fill="#EBE9E5" transform="translate(161,198)"/>
<path d="M0 0 C2.375 0.6875 2.375 0.6875 3.375 1.6875 C3.5 5.1875 3.5 5.1875 3.375 8.6875 C2.375 9.6875 2.375 9.6875 -0.5625 9.8125 C-3.625 9.6875 -3.625 9.6875 -5.625 8.6875 C-5.8125 5.3125 -5.8125 5.3125 -5.625 1.6875 C-2.625 -0.3125 -2.625 -0.3125 0 0 Z " fill="#3F71DB" transform="translate(171.625,198.3125)"/>
<path d="M0 0 C0 0.33 0 0.66 0 1 C-1.65 1.33 -3.3 1.66 -5 2 C-5.38063221 4.3260857 -5.71269945 6.66055264 -6 9 C-4.87465895 10.35618499 -4.87465895 10.35618499 -1.9375 10.0625 C-0.968125 10.041875 0.00125 10.02125 1 10 C1.66 7.69 2.32 5.38 3 3 C4.4606285 5.64738916 5 6.89448334 5 10 C5.66 10.33 6.32 10.66 7 11 C3.63025113 11.8985997 0.34558822 12.14852081 -3.125 12.25 C-3.97320312 12.27578125 -4.82140625 12.3015625 -5.6953125 12.328125 C-8 12 -8 12 -9.78125 10.671875 C-11.66690306 8.0851458 -11.38779057 6.10232455 -11 3 C-8.70019487 -1.31213463 -4.28166314 -0.2105736 0 0 Z " fill="#7788DC" transform="translate(299,217)"/>
<path d="M0 0 C2.44576827 3.66865241 2.23607254 5.67200343 2 10 C1.67 10.66 1.34 11.32 1 12 C-0.65 12 -2.3 12 -4 12 C-4.1953125 10.01432292 -4.390625 8.02864583 -4.5859375 6.04296875 C-4.92665391 3.70011858 -4.92665391 3.70011858 -7 1 C-4.46578263 -0.26710868 -2.80561762 -0.28056176 0 0 Z " fill="#F3EFE7" transform="translate(320,199)"/>
<path d="M0 0 C6.0546875 -0.1953125 6.0546875 -0.1953125 8 0 C10 2 10 2 10.3125 5.4375 C10 9 10 9 9 10.9375 C5.73357754 12.67278693 2.65648548 12.17982715 -1 12 C-1 11.67 -1 11.34 -1 11 C-0.071875 10.773125 0.85625 10.54625 1.8125 10.3125 C5.50719183 8.7911563 6.32482761 7.53647504 8 4 C7.34 3.67 6.68 3.34 6 3 C6 2.67 6 2.34 6 2 C3.03 1.505 3.03 1.505 0 1 C0 0.67 0 0.34 0 0 Z M6 4 C6 5.32 6 6.64 6 8 C4.02 8 2.04 8 0 8 C0 7.01 0 6.02 0 5 C2 4 2 4 6 4 Z " fill="#7188DC" transform="translate(215,190)"/>
<path d="M0 0 C0.33 0.66 0.66 1.32 1 2 C3.02463255 2.65213292 3.02463255 2.65213292 5 3 C3.68 3.33 2.36 3.66 1 4 C1 4.99 1 5.98 1 7 C1.66 7 2.32 7 3 7 C2.67 9.31 2.34 11.62 2 14 C1.01 14.33 0.02 14.66 -1 15 C-1 12.36 -1 9.72 -1 7 C-2.32 6.67 -3.64 6.34 -5 6 C-5 5.34 -5 4.68 -5 4 C-6.98 4 -8.96 4 -11 4 C-11.33 3.34 -11.66 2.68 -12 2 C-8.25715154 1.11932977 -4.83333136 1 -1 1 C-0.67 0.67 -0.34 0.34 0 0 Z " fill="#858BE2" transform="translate(315,209)"/>
<path d="M0 0 C5.66153846 2.33846154 5.66153846 2.33846154 7.375 5.6875 C7.58125 6.450625 7.7875 7.21375 8 8 C7.67 8 7.34 8 7 8 C6.34 9.98 5.68 11.96 5 14 C4.34 14 3.68 14 3 14 C3.33 14.99 3.66 15.98 4 17 C6.32206525 17.70491267 8.65593068 18.37212429 11 19 C11.33 19.66 11.66 20.32 12 21 C8.7 20.34 5.4 19.68 2 19 C0.79452055 14.17808219 0.79452055 14.17808219 2 11 C2.66 10.67 3.32 10.34 4 10 C3.67 8.35 3.34 6.7 3 5 C1.02 4.34 -0.96 3.68 -3 3 C-2.01 2.67 -1.02 2.34 0 2 C0 1.34 0 0.68 0 0 Z " fill="#5366DF" transform="translate(315,179)"/>
<path d="M0 0 C2.31 0 4.62 0 7 0 C6.01 0.495 6.01 0.495 5 1 C5.66 3.64 6.32 6.28 7 9 C6.01 9.33 5.02 9.66 4 10 C3.67 10.99 3.34 11.98 3 13 C-0.3 13.33 -3.6 13.66 -7 14 C-7 13.67 -7 13.34 -7 13 C-4.69 12.34 -2.38 11.68 0 11 C1.05404945 7.01803543 0.84098656 4.01804691 0 0 Z " fill="#6670D6" transform="translate(294,231)"/>
<path d="M0 0 C1.98 0 3.96 0 6 0 C5.01 0.86625 5.01 0.86625 4 1.75 C1.55709077 3.99653977 1.55709077 3.99653977 2 8 C4.475 8.99 4.475 8.99 7 10 C6.67 11.98 6.34 13.96 6 16 C5.67 15.01 5.34 14.02 5 13 C2.36 13 -0.28 13 -3 13 C-1.68 12.34 -0.36 11.68 1 11 C0.175 10.608125 -0.65 10.21625 -1.5 9.8125 C-2.325 9.214375 -3.15 8.61625 -4 8 C-4.3125 5.3125 -4.3125 5.3125 -4 3 C-2.68 2.34 -1.36 1.68 0 1 C0 0.67 0 0.34 0 0 Z " fill="#5B57DD" transform="translate(174,173)"/>
<path d="M0 0 C0.66 0.33 1.32 0.66 2 1 C2 1.33 2 1.66 2 2 C2.66 2.33 3.32 2.66 4 3 C4.33 3.66 4.66 4.32 5 5 C-2.19750441 11.43181245 -2.19750441 11.43181245 -7.5 11.375 C-8.655 11.25125 -9.81 11.1275 -11 11 C-10.401875 10.731875 -9.80375 10.46375 -9.1875 10.1875 C-7.02775192 9.01506533 -5.64209744 7.80630718 -4 6 C-6.31 6 -8.62 6 -11 6 C-11 5.67 -11 5.34 -11 5 C-9.1128125 4.5978125 -9.1128125 4.5978125 -7.1875 4.1875 C-4.00551199 3.40467463 -1.99755689 2.74664072 0 0 Z " fill="#7496DE" transform="translate(265,228)"/>
<path d="M0 0 C0.99 0.33 1.98 0.66 3 1 C2.95875 2.093125 2.9175 3.18625 2.875 4.3125 C2.67925334 8.08892229 2.67925334 8.08892229 5 11 C5.99 11.33 6.98 11.66 8 12 C8 13.65 8 15.3 8 17 C7.67 15.68 7.34 14.36 7 13 C5.01432292 12.8046875 3.02864583 12.609375 1.04296875 12.4140625 C-1 12 -1 12 -4 10 C-3.49019669 6.22745547 -2.79299818 4.55012877 0 2 C0 1.34 0 0.68 0 0 Z " fill="#676EE6" transform="translate(158,199)"/>
<path d="M0 0 C1.4540625 0.0309375 1.4540625 0.0309375 2.9375 0.0625 C3.5975 1.7125 4.2575 3.3625 4.9375 5.0625 C3.9475 5.5575 3.9475 5.5575 2.9375 6.0625 C2.9375 5.4025 2.9375 4.7425 2.9375 4.0625 C2.2775 4.0625 1.6175 4.0625 0.9375 4.0625 C0.9375 4.7225 0.9375 5.3825 0.9375 6.0625 C-0.0525 6.0625 -1.0425 6.0625 -2.0625 6.0625 C-1.0725 7.3825 -0.0825 8.7025 0.9375 10.0625 C-0.3825 10.3925 -1.7025 10.7225 -3.0625 11.0625 C-5.0625 8.0625 -5.0625 8.0625 -4.75 4.4375 C-3.86212049 0.07881879 -3.86212049 0.07881879 0 0 Z " fill="#4F65DB" transform="translate(264.0625,186.9375)"/>
<path d="M0 0 C1.46015291 0.28241641 2.91809793 0.57626614 4.375 0.875 C5.18710937 1.03742188 5.99921875 1.19984375 6.8359375 1.3671875 C9 2 9 2 11 4 C10.625 6.125 10.625 6.125 10 8 C9.46375 7.835 8.9275 7.67 8.375 7.5 C5.54113991 6.90339788 2.8880194 6.9343632 0 7 C-1.125 2.25 -1.125 2.25 0 0 Z " fill="#5463DF" transform="translate(301,168)"/>
<path d="M0 0 C2 3 2 3 1.8125 5.5 C0.95559826 8.13662075 0.11007147 9.25689748 -2 11 C-2.66 10.67 -3.32 10.34 -4 10 C-4 8.02 -4 6.04 -4 4 C-5.175625 3.7834375 -5.175625 3.7834375 -6.375 3.5625 C-9 3 -9 3 -11 2 C-7.02032977 -0.92622811 -4.75976578 -1.48081602 0 0 Z " fill="#6A7DE2" transform="translate(189,218)"/>
<path d="M0 0 C1.670625 0.061875 1.670625 0.061875 3.375 0.125 C4.035 1.445 4.695 2.765 5.375 4.125 C4.715 4.785 4.055 5.445 3.375 6.125 C-0.16071429 5.58928571 -0.16071429 5.58928571 -1.625 4.125 C-1.295 6.105 -0.965 8.085 -0.625 10.125 C-1.945 9.795 -3.265 9.465 -4.625 9.125 C-5.25 5.75 -5.25 5.75 -5.625 2.125 C-3.625 0.125 -3.625 0.125 0 0 Z " fill="#3A36DB" transform="translate(247.625,163.875)"/>
<path d="M0 0 C1.32 0.33 2.64 0.66 4 1 C4.6875 2.75 4.6875 2.75 5 5 C4 7.25 4 7.25 2 9 C-1.6875 9.25 -1.6875 9.25 -5 9 C-5.33 7.35 -5.66 5.7 -6 4 C-5.34 3.67 -4.68 3.34 -4 3 C-4 3.66 -4 4.32 -4 5 C-2.35 4.67 -0.7 4.34 1 4 C0.67 2.68 0.34 1.36 0 0 Z " fill="#4C62DC" transform="translate(219,213)"/>
<path d="M0 0 C0.33 0 0.66 0 1 0 C1.77442754 9.82662495 1.77442754 9.82662495 -1.0625 14.125 C-4.45899074 16.29297281 -7.00664332 16.76509667 -11 17 C-10.505 15.515 -10.505 15.515 -10 14 C-9.21625 13.690625 -8.4325 13.38125 -7.625 13.0625 C-4.5084324 11.80103216 -3.59056471 10.9425447 -2 8 C-1.60612212 5.67612053 -1.26513915 3.34206251 -1 1 C-0.67 0.67 -0.34 0.34 0 0 Z " fill="#4761DB" transform="translate(200,233)"/>
<path d="M0 0 C0.33 0 0.66 0 1 0 C0.979375 0.928125 0.95875 1.85625 0.9375 2.8125 C0.84230396 6.02286011 0.84230396 6.02286011 2 9 C-1.32307692 12.93846154 -1.32307692 12.93846154 -4.75 13.25 C-5.4925 13.1675 -6.235 13.085 -7 13 C-6.38125 12.938125 -5.7625 12.87625 -5.125 12.8125 C-2.72238859 12.171081 -2.72238859 12.171081 -1.75 9.4375 C-1.37875 8.2309375 -1.37875 8.2309375 -1 7 C-1.86625 7.495 -1.86625 7.495 -2.75 8 C-5 9 -5 9 -9 9 C-9.33 9.99 -9.66 10.98 -10 12 C-11.76462683 8.91190305 -12 7.76687864 -12 4 C-11.34 4 -10.68 4 -10 4 C-9.67 5.32 -9.34 6.64 -9 8 C-8.071875 7.525625 -7.14375 7.05125 -6.1875 6.5625 C-3 5 -3 5 0 4 C0 2.68 0 1.36 0 0 Z " fill="#4A47D8" transform="translate(311,228)"/>
<path d="M0 0 C0 3 0 3 -1.25 4.625 C-3.18254291 6.14342657 -4.64045789 6.44944017 -7 7 C-7.33 7.66 -7.66 8.32 -8 9 C-9.32 8.67 -10.64 8.34 -12 8 C-12 7.34 -12 6.68 -12 6 C-11.34 6 -10.68 6 -10 6 C-9.67 4.35 -9.34 2.7 -9 1 C-4.545 0.505 -4.545 0.505 0 0 Z " fill="#627CDB" transform="translate(197,241)"/>
<path d="M0 0 C4.38889325 0.66498383 7.9811485 2.18757677 12 4 C12 4.66 12 5.32 12 6 C12.66 6.66 13.32 7.32 14 8 C10.42355152 9.2380014 7.66305234 8.74926071 4 8 C3.896875 7.38125 3.79375 6.7625 3.6875 6.125 C3.12474627 3.63473516 3.12474627 3.63473516 0 2 C0 1.34 0 0.68 0 0 Z " fill="#485CD9" transform="translate(265,173)"/>
<path d="M0 0 C4.83256305 0.41421969 6.82679218 2.46413986 10 6 C9.67 6.66 9.34 7.32 9 8 C10.98 8 12.96 8 15 8 C15 8.33 15 8.66 15 9 C9.59281183 9.57934159 6.89350344 9.34220083 2.5 6 C1.31806919 5.01808825 0.14576826 4.02387802 -1 3 C-0.67 2.01 -0.34 1.02 0 0 Z " fill="#666FDF" transform="translate(260,173)"/>
<path d="M0 0 C-0.25 2.375 -0.25 2.375 -1 5 C-3.0625 6.3125 -3.0625 6.3125 -5 7 C-5.33 5.35 -5.66 3.7 -6 2 C-7.98 2 -9.96 2 -12 2 C-11 0 -11 0 -8.25 -1.25 C-4.60741086 -2.09059749 -3.24128426 -1.71597402 0 0 Z " fill="#EAE6E5" transform="translate(307,229)"/>
<path d="M0 0 C2.97 0.495 2.97 0.495 6 1 C6.09765625 7.15234375 6.09765625 7.15234375 6 9 C5 10 5 10 1.9375 10.0625 C0.968125 10.041875 -0.00125 10.02125 -1 10 C-1.33 8.35 -1.66 6.7 -2 5 C-0.02 5.66 1.96 6.32 4 7 C3.67 6.01 3.34 5.02 3 4 C2.01 3.67 1.02 3.34 0 3 C0 2.01 0 1.02 0 0 Z " fill="#4451DB" transform="translate(187,206)"/>
<path d="M0 0 C2.0625 0.4375 2.0625 0.4375 4 1 C4 2.32 4 3.64 4 5 C4.99 5.33 5.98 5.66 7 6 C6.01 6.99 5.02 7.98 4 9 C2.02 8.34 0.04 7.68 -2 7 C-1.125 1.125 -1.125 1.125 0 0 Z " fill="#F4EFE7" transform="translate(177,174)"/>
<path d="M0 0 C1.67542976 0.28604898 3.34385343 0.61781233 5 1 C5.625 4.375 5.625 4.375 6 8 C4 10 4 10 0.875 10.125 C-0.548125 10.063125 -0.548125 10.063125 -2 10 C-2.33 9.34 -2.66 8.68 -3 8 C-1.35 8 0.3 8 2 8 C2 6.02 2 4.04 2 2 C1.01 1.67 0.02 1.34 -1 1 C-0.67 0.67 -0.34 0.34 0 0 Z " fill="#3734DC" transform="translate(234,235)"/>
<path d="M0 0 C2.31 0 4.62 0 7 0 C7 0.99 7 1.98 7 3 C6.01 3.33 5.02 3.66 4 4 C4.66 4.66 5.32 5.32 6 6 C3.03 6 0.06 6 -3 6 C-3.33 5.34 -3.66 4.68 -4 4 C-3.34 4 -2.68 4 -2 4 C-1.34 2.68 -0.68 1.36 0 0 Z " fill="#5567DA" transform="translate(222,235)"/>
<path d="M0 0 C2.475 0.99 2.475 0.99 5 2 C5.36190476 7.42857143 5.36190476 7.42857143 3.8125 9.875 C1.43963721 11.34781139 -0.25913944 11.22223194 -3 11 C-2.01 10.67 -1.02 10.34 0 10 C0 6.7 0 3.4 0 0 Z " fill="#6173D5" transform="translate(189,181)"/>
<path d="M0 0 C0.99 0 1.98 0 3 0 C3 4.95 3 9.9 3 15 C2.01 15.33 1.02 15.66 0 16 C0 10.72 0 5.44 0 0 Z " fill="#767FE4" transform="translate(202,198)"/>
<path d="M0 0 C1.99954746 -0.04254356 4.00041636 -0.04080783 6 0 C7 1 7 1 7.3125 3.875 C7 7 7 7 5 8.875 C4.01 9.431875 4.01 9.431875 3 10 C2.34 9.67 1.68 9.34 1 9 C1.020625 7.88625 1.04125 6.7725 1.0625 5.625 C1.26380718 2.16784079 1.26380718 2.16784079 0 0 Z " fill="#6D75E8" transform="translate(173,198)"/>
<path d="M0 0 C3.6324675 1.911825 5.51539826 3.15103252 7 7 C7.1953125 9.359375 7.1953125 9.359375 7.125 11.75 C7.10695312 12.54921875 7.08890625 13.3484375 7.0703125 14.171875 C7.03550781 15.07679688 7.03550781 15.07679688 7 16 C6.01 16 5.02 16 4 16 C3.96261719 15.40832031 3.92523438 14.81664062 3.88671875 14.20703125 C3.48131892 9.33428431 2.85719103 6.09944801 0 2 C0 1.34 0 0.68 0 0 Z " fill="#7D8EE3" transform="translate(198,162)"/>
<path d="M0 0 C3.3 0 6.6 0 10 0 C10.33 4.62 10.66 9.24 11 14 C7.05285412 10.05285412 7.05285412 10.05285412 6.90234375 7.0546875 C6.93489583 5.03645833 6.96744792 3.01822917 7 1 C4.69 1 2.38 1 0 1 C0 0.67 0 0.34 0 0 Z " fill="#8694E4" transform="translate(270,231)"/>
<path d="M0 0 C2.76276177 0.52268466 5.3260876 1.10869587 8 2 C7.5020163 5.73487777 7.12508244 7.81237635 5 11 C4.34 11 3.68 11 3 11 C2.86722656 10.37351563 2.73445313 9.74703125 2.59765625 9.1015625 C2.42105469 8.28429687 2.24445313 7.46703125 2.0625 6.625 C1.80146484 5.40683594 1.80146484 5.40683594 1.53515625 4.1640625 C1.07669307 1.970537 1.07669307 1.970537 0 0 Z " fill="#7079E9" transform="translate(319,198)"/>
<path d="M0 0 C2.28748276 0 4.52404348 0.09771342 6.80078125 0.3125 C6.80078125 0.6425 6.80078125 0.9725 6.80078125 1.3125 C4.16078125 1.3125 1.52078125 1.3125 -1.19921875 1.3125 C-1.19921875 2.3025 -1.19921875 3.2925 -1.19921875 4.3125 C1.44078125 4.3125 4.08078125 4.3125 6.80078125 4.3125 C6.80078125 4.6425 6.80078125 4.9725 6.80078125 5.3125 C5.72828125 5.580625 4.65578125 5.84875 3.55078125 6.125 C0.19137647 7.18881151 -1.54053463 8.14616479 -4.19921875 10.3125 C-4.85921875 10.3125 -5.51921875 10.3125 -6.19921875 10.3125 C-4.82392737 0.68546037 -4.82392737 0.68546037 0 0 Z " fill="#6D81BB" transform="translate(221.19921875,170.6875)"/>
<path d="M0 0 C1.8125 1.1875 1.8125 1.1875 3 3 C3.1875 6.1875 3.1875 6.1875 3 9 C2.278125 8.175 1.55625 7.35 0.8125 6.5 C-1.72917366 3.75592194 -1.72917366 3.75592194 -4.8125 3.6875 C-5.534375 3.790625 -6.25625 3.89375 -7 4 C-7 2.68 -7 1.36 -7 0 C-4.26634878 -1.36682561 -2.89333621 -0.84683011 0 0 Z " fill="#6A68DB" transform="translate(238,231)"/>
<path d="M0 0 C-0.7115625 0.804375 -0.7115625 0.804375 -1.4375 1.625 C-3.28186076 4.42842836 -3.62456847 6.69620258 -4 10 C-4.33 10 -4.66 10 -5 10 C-5 8.35 -5 6.7 -5 5 C-6.65 4.67 -8.3 4.34 -10 4 C-9.625 2.0625 -9.625 2.0625 -9 0 C-5.93109813 -1.53445094 -3.29905734 -0.54984289 0 0 Z " fill="#557BDD" transform="translate(173,225)"/>
<path d="M0 0 C3.3 0 6.6 0 10 0 C10 3.96 10 7.92 10 12 C9.01 12 8.02 12 7 12 C7 8.37 7 4.74 7 1 C4.69 1 2.38 1 0 1 C0 0.67 0 0.34 0 0 Z " fill="#8194E2" transform="translate(270,215)"/>
<path d="M0 0 C0 4.95 0 9.9 0 15 C-0.99 15 -1.98 15 -3 15 C-3 10.38 -3 5.76 -3 1 C-1 0 -1 0 0 0 Z " fill="#7780E5" transform="translate(280,196)"/>
<path d="M0 0 C0.33 2.97 0.66 5.94 1 9 C0.01 9.66 -0.98 10.32 -2 11 C-3.5625 9.875 -3.5625 9.875 -5 8 C-4.875 4.9375 -4.875 4.9375 -4 2 C-1 0 -1 0 0 0 Z " fill="#7485E5" transform="translate(296,181)"/>
<path d="M0 0 C1.76923828 0.04060547 1.76923828 0.04060547 3.57421875 0.08203125 C4.47785156 0.11683594 5.38148438 0.15164062 6.3125 0.1875 C4.3125 3.1875 4.3125 3.1875 2 3.69921875 C1.113125 3.75722656 0.22625 3.81523437 -0.6875 3.875 C-2.0178125 3.97361328 -2.0178125 3.97361328 -3.375 4.07421875 C-7.50903846 4.27673077 -7.50903846 4.27673077 -9.6875 3.1875 C-6.99455929 -0.5165087 -4.35133403 -0.12924755 0 0 Z " fill="#4F6AD3" transform="translate(273.6875,227.8125)"/>
<path d="M0 0 C2.31 0 4.62 0 7 0 C6.01 0.66 5.02 1.32 4 2 C4 2.66 4 3.32 4 4 C4.99 4 5.98 4 7 4 C7 5.32 7 6.64 7 8 C5 9.75 5 9.75 3 11 C2.34 10.67 1.68 10.34 1 10 C1.33 7.69 1.66 5.38 2 3 C1.34 3 0.68 3 0 3 C0 2.01 0 1.02 0 0 Z " fill="#676DDB" transform="translate(304,224)"/>
<path d="M0 0 C2.125 0.375 2.125 0.375 4 1 C3.67 3.31 3.34 5.62 3 8 C1.35 8.33 -0.3 8.66 -2 9 C-2.125 5.625 -2.125 5.625 -2 2 C-1.34 1.34 -0.68 0.68 0 0 Z " fill="#6C71E3" transform="translate(304,202)"/>
<path d="M0 0 C3 1 3 1 5 3 C4.236875 3.37125 3.47375 3.7425 2.6875 4.125 C-0.52043115 6.3630915 -1.4977816 8.44211433 -3 12 C-3.33 12 -3.66 12 -4 12 C-4.49230769 4.61538462 -4.49230769 4.61538462 -2 1.5 C-1.34 1.005 -0.68 0.51 0 0 Z " fill="#3532DA" transform="translate(163,180)"/>
<path d="M0 0 C0.99 0 1.98 0 3 0 C3 2.97 3 5.94 3 9 C4.65 9 6.3 9 8 9 C8 9.33 8 9.66 8 10 C5.36 10.33 2.72 10.66 0 11 C0 7.37 0 3.74 0 0 Z " fill="#7989E2" transform="translate(202,218)"/>
<path d="M0 0 C0.99 0 1.98 0 3 0 C3 0.66 3 1.32 3 2 C4.32 2.33 5.64 2.66 7 3 C7 3.99 7 4.98 7 6 C6.21625 5.79375 5.4325 5.5875 4.625 5.375 C3.325625 5.189375 3.325625 5.189375 2 5 C1.34 5.66 0.68 6.32 0 7 C-1 6 -1 6 -1.125 3.5 C-1 1 -1 1 0 0 Z " fill="#5D71DF" transform="translate(184,207)"/>
<path d="M0 0 C0.66 0 1.32 0 2 0 C2.12117188 0.63808594 2.24234375 1.27617187 2.3671875 1.93359375 C2.53476562 2.75988281 2.70234375 3.58617187 2.875 4.4375 C3.03742188 5.26121094 3.19984375 6.08492187 3.3671875 6.93359375 C3.57601563 7.61550781 3.78484375 8.29742187 4 9 C4.66 9.33 5.32 9.66 6 10 C3.625 10.125 3.625 10.125 1 10 C-1 8 -1 8 -1.1875 4.4375 C-1 1 -1 1 0 0 Z " fill="#737CE0" transform="translate(286,195)"/>
<path d="M0 0 C0.99 0 1.98 0 3 0 C3 3.96 3 7.92 3 12 C2.01 12 1.02 12 0 12 C0 8.04 0 4.08 0 0 Z " fill="#7B91E4" transform="translate(202,182)"/>
<path d="M0 0 C0.66 0.66 1.32 1.32 2 2 C1.625 4.125 1.625 4.125 1 6 C0.01 5.34 -0.98 4.68 -2 4 C-4.62531524 3.83286431 -4.62531524 3.83286431 -7 4 C-7.33 3.01 -7.66 2.02 -8 1 C-4.9553071 -0.84856355 -3.35670253 -1.34268101 0 0 Z " fill="#EDE9E5" transform="translate(304,176)"/>
<path d="M0 0 C0.33 0.99 0.66 1.98 1 3 C0.67 3.33 0.34 3.66 0 4 C-0.33343551 6.45792029 -0.33343551 6.45792029 0 9 C0.99 9.66 1.98 10.32 3 11 C3 11.66 3 12.32 3 13 C1.02 12.34 -0.96 11.68 -3 11 C-3.36923077 3.49230769 -3.36923077 3.49230769 -1.5 1 C-1.005 0.67 -0.51 0.34 0 0 Z " fill="#4660DB" transform="translate(172,226)"/>
<path d="M0 0 C2.97 0.495 2.97 0.495 6 1 C5.67 3.64 5.34 6.28 5 9 C4.01 9.33 3.02 9.66 2 10 C1.77213542 7.98177083 1.54427083 5.96354167 1.31640625 3.9453125 C1.08707039 1.92595684 1.08707039 1.92595684 0 0 Z " fill="#7196E4" transform="translate(304,176)"/>
<path d="M0 0 C0.9075 0.391875 1.815 0.78375 2.75 1.1875 C-0.61423277 4.14802484 -3.94159287 5.11039822 -8.25 6.1875 C-7.88560417 3.54563021 -7.36704411 2.31754902 -5.5625 0.3125 C-3.25 -0.8125 -3.25 -0.8125 0 0 Z " fill="#3333D3" transform="translate(176.25,170.8125)"/>
<path d="M0 0 C2.5 1.8125 2.5 1.8125 5 4 C5 4.99 5 5.98 5 7 C4.34 7 3.68 7 3 7 C2.67 7.66 2.34 8.32 2 9 C1.87625 8.360625 1.7525 7.72125 1.625 7.0625 C1.41875 6.381875 1.2125 5.70125 1 5 C0.34 4.67 -0.32 4.34 -1 4 C-1.33 5.32 -1.66 6.64 -2 8 C-2.33 6.02 -2.66 4.04 -3 2 C-2.01 2 -1.02 2 0 2 C0 1.34 0 0.68 0 0 Z " fill="#6193DF" transform="translate(298,161)"/>
<path d="M0 0 C1.485 0.99 1.485 0.99 3 2 C5.32108669 2.70812814 7.65377147 3.38024152 10 4 C8.25 5.5625 8.25 5.5625 6 7 C2.99611368 6.73495121 2.16695725 6.16695725 0 4 C0 2.68 0 1.36 0 0 Z " fill="#ECE8E5" transform="translate(176,227)"/>
<path d="M0 0 C-0.66 0 -1.32 0 -2 0 C-2 0.66 -2 1.32 -2 2 C-2.99 2.495 -2.99 2.495 -4 3 C-4.33 3.99 -4.66 4.98 -5 6 C-4.34 6 -3.68 6 -3 6 C-3 6.66 -3 7.32 -3 8 C-4.32 7.67 -5.64 7.34 -7 7 C-7.93423645 3.98968256 -8.04449911 3.13349732 -7 0 C-3.86650268 -1.04449911 -3.01031744 -0.93423645 0 0 Z " fill="#425ADB" transform="translate(184,221)"/>
<path d="M0 0 C0.94875 0.04125 1.8975 0.0825 2.875 0.125 C2.875 1.115 2.875 2.105 2.875 3.125 C1.21885343 3.50718767 -0.44957024 3.83895102 -2.125 4.125 C-2.455 3.795 -2.785 3.465 -3.125 3.125 C-4.115 4.61 -4.115 4.61 -5.125 6.125 C-5.125 5.465 -5.125 4.805 -5.125 4.125 C-7.435 4.125 -9.745 4.125 -12.125 4.125 C-12.125 3.795 -12.125 3.465 -12.125 3.125 C-11.01125 3.00125 -9.8975 2.8775 -8.75 2.75 C-4.70641243 2.05282973 -3.97840317 0.15913613 0 0 Z " fill="#748FDC" transform="translate(217.125,213.875)"/>
<path d="M0 0 C2.1875 0.3125 2.1875 0.3125 4 1 C3.01 1.495 3.01 1.495 2 2 C2.66 2.66 3.32 3.32 4 4 C3.05125 4.28875 2.1025 4.5775 1.125 4.875 C-2.05211578 5.76825109 -2.05211578 5.76825109 -4 8 C-4 7.34 -4 6.68 -4 6 C-4.99 5.67 -5.98 5.34 -7 5 C-6.401875 4.731875 -5.80375 4.46375 -5.1875 4.1875 C-2.94489213 3.1305255 -2.94489213 3.1305255 -1.5 1.3125 C-0.7575 0.6628125 -0.7575 0.6628125 0 0 Z " fill="#444CDB" transform="translate(232,234)"/>
<path d="M0 0 C0.33 0 0.66 0 1 0 C1.35706695 6.30818278 1.35706695 6.30818278 0 8.9375 C-3.26642246 10.67278693 -6.34351452 10.17982715 -10 10 C-10 9.67 -10 9.34 -10 9 C-9.071875 8.7525 -8.14375 8.505 -7.1875 8.25 C-3.78637127 6.91622403 -2.78514071 6.10050754 -1 3 C-0.67 2.01 -0.34 1.02 0 0 Z " fill="#7099D8" transform="translate(224,192)"/>
<path d="M0 0 C1.5625 1.6875 1.5625 1.6875 3 4 C2.6875 6.75 2.6875 6.75 2 9 C0.68 8.34 -0.64 7.68 -2 7 C-2 5.35 -2 3.7 -2 2 C-1.34 2 -0.68 2 0 2 C0 1.34 0 0.68 0 0 Z " fill="#7688E2" transform="translate(185,170)"/>
<path d="M0 0 C1.6415049 3.2830098 0.51888624 6.42545033 0 10 C-2.97 10 -5.94 10 -9 10 C-9 9.67 -9 9.34 -9 9 C-7.02 9 -5.04 9 -3 9 C-2.814375 7.329375 -2.814375 7.329375 -2.625 5.625 C-2 2 -2 2 0 0 Z " fill="#848FDE" transform="translate(280,166)"/>
<path d="M0 0 C1.65 1.65 3.3 3.3 5 5 C5.33 4.01 5.66 3.02 6 2 C6 3.65 6 5.3 6 7 C5.34 7 4.68 7 4 7 C3.67 7.66 3.34 8.32 3 9 C1.35 7.02 -0.3 5.04 -2 3 C-1.34 2.01 -0.68 1.02 0 0 Z " fill="#5A8DDE" transform="translate(181,240)"/>
<path d="M0 0 C1.98 0.495 1.98 0.495 4 1 C4 1.66 4 2.32 4 3 C4.66 3 5.32 3 6 3 C6.33 2.01 6.66 1.02 7 0 C7.1875 2.375 7.1875 2.375 7 5 C6.01 5.66 5.02 6.32 4 7 C4 6.01 4 5.02 4 4 C2.35 4 0.7 4 -1 4 C-0.67 2.68 -0.34 1.36 0 0 Z " fill="#6477E1" transform="translate(292,196)"/>
<path d="M0 0 C1.29862143 2.59724285 1.52427843 5.1456706 2 8 C2.95865509 10.33075929 2.95865509 10.33075929 6 12 C3.6875 12.25 3.6875 12.25 1 12 C-0.875 10.4375 -0.875 10.4375 -2 8 C-1.56363636 1.56363636 -1.56363636 1.56363636 0 0 Z " fill="#7D8CDC" transform="translate(259,189)"/>
<path d="M0 0 C0.33 0 0.66 0 1 0 C1 3.63 1 7.26 1 11 C0.01 11 -0.98 11 -2 11 C-2.05399736 9.54207116 -2.09279177 8.08357288 -2.125 6.625 C-2.15980469 5.40683594 -2.15980469 5.40683594 -2.1953125 4.1640625 C-2 2 -2 2 0 0 Z " fill="#788BE5" transform="translate(279,180)"/>
<path d="M0 0 C0.66 0.99 1.32 1.98 2 3 C4.55183404 4.20450304 4.55183404 4.20450304 7 5 C6.67 6.98 6.34 8.96 6 11 C5.67 10.01 5.34 9.02 5 8 C2.36 8 -0.28 8 -3 8 C-1.68 7.34 -0.36 6.68 1 6 C0.67 5.67 0.34 5.34 0 5 C-0.04063832 3.33382885 -0.042721 1.66611905 0 0 Z " fill="#8B90DF" transform="translate(174,178)"/>
<path d="M0 0 C0.33 0 0.66 0 1 0 C1.36421725 7.4057508 1.36421725 7.4057508 -0.1875 9.9375 C-2.42498625 11.24912987 -4.44312331 11.65447612 -7 12 C-6.67 11.01 -6.34 10.02 -6 9 C-5.01 9 -4.02 9 -3 9 C-2.01 6.03 -1.02 3.06 0 0 Z " fill="#5B57E0" transform="translate(327,200)"/>
<path d="M0 0 C2.31 0.33 4.62 0.66 7 1 C4.6875 3.5 4.6875 3.5 2 6 C1.01 6 0.02 6 -1 6 C-0.67 4.02 -0.34 2.04 0 0 Z " fill="#4C71DB" transform="translate(301,168)"/>
<path d="M0 0 C1.32 0 2.64 0 4 0 C4 1.32 4 2.64 4 4 C3.01 4.495 3.01 4.495 2 5 C1.34227572 8.02934491 1.34227572 8.02934491 1 11 C0.34 10.67 -0.32 10.34 -1 10 C-0.67 6.7 -0.34 3.4 0 0 Z " fill="#7593E2" transform="translate(166,210)"/>
<path d="M0 0 C0.66 0.33 1.32 0.66 2 1 C1.34 1.556875 0.68 2.11375 0 2.6875 C-2.25492211 4.84062308 -2.25492211 4.84062308 -2.25 7.75 C-2.1675 8.4925 -2.085 9.235 -2 10 C-2.99 10.33 -3.98 10.66 -5 11 C-5.33 9.68 -5.66 8.36 -6 7 C-5.67 7 -5.34 7 -5 7 C-4.731875 6.030625 -4.46375 5.06125 -4.1875 4.0625 C-3.5996875 2.5465625 -3.5996875 2.5465625 -3 1 C-2.01 0.67 -1.02 0.34 0 0 Z " fill="#544FE2" transform="translate(157,200)"/>
<path d="M0 0 C0.99 0.33 1.98 0.66 3 1 C3.1875 3.375 3.1875 3.375 3 6 C0 8 0 8 -2.6875 7.625 C-3.450625 7.41875 -4.21375 7.2125 -5 7 C-3.68 6.34 -2.36 5.68 -1 5 C-1.33 4.34 -1.66 3.68 -2 3 C-1.34 3 -0.68 3 0 3 C0 2.01 0 1.02 0 0 Z " fill="#567ADC" transform="translate(179,234)"/>
<path d="M0 0 C1.4606285 2.64738916 2 3.89448334 2 7 C2.66 7.33 3.32 7.66 4 8 C-0.96073422 9.32286246 -5.91111512 9.08893197 -11 9 C-11 8.67 -11 8.34 -11 8 C-6.545 7.505 -6.545 7.505 -2 7 C-1.34 4.69 -0.68 2.38 0 0 Z " fill="#A6ACE3" transform="translate(302,220)"/>
<path d="M0 0 C1.65 0 3.3 0 5 0 C5 3 5 3 3.5 4.6875 C3.005 5.120625 2.51 5.55375 2 6 C1.01 5.67 0.02 5.34 -1 5 C-0.67 3.35 -0.34 1.7 0 0 Z " fill="#5785E0" transform="translate(310,202)"/>
<path d="M0 0 C1.65 0 3.3 0 5 0 C4.67 1.98 4.34 3.96 4 6 C1.03 5.505 1.03 5.505 -2 5 C-1.34 3.35 -0.68 1.7 0 0 Z " fill="#5888E0" transform="translate(168,202)"/>
<path d="M0 0 C1.3303125 0.4021875 1.3303125 0.4021875 2.6875 0.8125 C0.14144698 2.81297023 -2.2789636 4.63822785 -5.3125 5.8125 C-6.3025 5.4825 -7.2925 5.1525 -8.3125 4.8125 C-4.12788462 -0.23365385 -4.12788462 -0.23365385 0 0 Z " fill="#3333D3" transform="translate(188.3125,161.1875)"/>
<path d="M0 0 C-0.66 1.65 -1.32 3.3 -2 5 C-3.98 5 -5.96 5 -8 5 C-8 4.01 -8 3.02 -8 2 C-2.25 0 -2.25 0 0 0 Z " fill="#2F30D4" transform="translate(310,235)"/>
<path d="M0 0 C4.875 0.875 4.875 0.875 6 2 C8.32817964 2.36760731 10.6618385 2.70241581 13 3 C13 3.33 13 3.66 13 4 C11.41705218 4.05437607 9.83355744 4.09296271 8.25 4.125 C7.36828125 4.14820313 6.4865625 4.17140625 5.578125 4.1953125 C2.8864142 3.99139502 1.30095026 3.36551721 -1 2 C-0.67 1.34 -0.34 0.68 0 0 Z " fill="#5F7EDC" transform="translate(264,208)"/>
<path d="M0 0 C0.99 0.33 1.98 0.66 3 1 C3 3.31 3 5.62 3 8 C1.68 8 0.36 8 -1 8 C-0.67 5.36 -0.34 2.72 0 0 Z " fill="#3D5EDB" transform="translate(172,199)"/>
<path d="M0 0 C1.2065625 0.0309375 1.2065625 0.0309375 2.4375 0.0625 C2.4375 1.0525 2.4375 2.0425 2.4375 3.0625 C-0.2025 3.7225 -2.8425 4.3825 -5.5625 5.0625 C-3.15007962 0.07683121 -3.15007962 0.07683121 0 0 Z " fill="#598BDD" transform="translate(233.5625,165.9375)"/>
<path d="M0 0 C2.475 0.495 2.475 0.495 5 1 C5 2.98 5 4.96 5 7 C3.68 7.33 2.36 7.66 1 8 C1.33 5.69 1.66 3.38 2 1 C1.34 0.67 0.68 0.34 0 0 Z " fill="#6054E7" transform="translate(316,215)"/>
<path d="M0 0 C0.66 0.33 1.32 0.66 2 1 C1.67 2.65 1.34 4.3 1 6 C-0.65 6.33 -2.3 6.66 -4 7 C-4 6.01 -4 5.02 -4 4 C-2.68 3.67 -1.36 3.34 0 3 C0 2.01 0 1.02 0 0 Z " fill="#3D71DA" transform="translate(314,204)"/>
<path d="M0 0 C0.33 0.66 0.66 1.32 1 2 C2.97888961 2.72693904 4.97954558 3.39816251 7 4 C3.91190305 5.76462683 2.76687864 6 -1 6 C-1.042721 4.33388095 -1.04063832 2.66617115 -1 1 C-0.67 0.67 -0.34 0.34 0 0 Z " fill="#6B7FE8" transform="translate(172,229)"/>
<path d="M0 0 C2.475 0.99 2.475 0.99 5 2 C5 3.98 5 5.96 5 8 C4.67 7.34 4.34 6.68 4 6 C3.01 5.67 2.02 5.34 1 5 C0.67 3.35 0.34 1.7 0 0 Z " fill="#7B8CE4" transform="translate(189,181)"/>
<path d="M0 0 C0.33 0.66 0.66 1.32 1 2 C-0.75 4 -0.75 4 -3 6 C-4.32 6 -5.64 6 -7 6 C-7 5.01 -7 4.02 -7 3 C-5.35 3 -3.7 3 -2 3 C-2 2.34 -2 1.68 -2 1 C-1.34 0.67 -0.68 0.34 0 0 Z " fill="#6164D5" transform="translate(252,173)"/>
<path d="M0 0 C0.66 0.33 1.32 0.66 2 1 C-0.81865285 5.31606218 -0.81865285 5.31606218 -3 7 C-5.94828161 7.24523599 -8.07230735 6.69470673 -11 6 C-11 5.67 -11 5.34 -11 5 C-9.1128125 4.5978125 -9.1128125 4.5978125 -7.1875 4.1875 C-4.00551199 3.40467463 -1.99755689 2.74664072 0 0 Z " fill="#7F90BF" transform="translate(265,228)"/>
<path d="M0 0 C1.5625 1.1875 1.5625 1.1875 3 3 C2.84946418 6.01071639 2.41319987 7.52068815 0.4375 9.8125 C-0.036875 10.204375 -0.51125 10.59625 -1 11 C-1.66 10.67 -2.32 10.34 -3 10 C-2.67 9.01 -2.34 8.02 -2 7 C-1.01 7 -0.02 7 1 7 C0.67 4.69 0.34 2.38 0 0 Z " fill="#8694E1" transform="translate(188,218)"/>
<path d="M0 0 C0.66 0.33 1.32 0.66 2 1 C1.67 2.65 1.34 4.3 1 6 C-0.32 6.33 -1.64 6.66 -3 7 C-3 5.02 -3 3.04 -3 1 C-2.01 0.67 -1.02 0.34 0 0 Z " fill="#6357E8" transform="translate(164,187)"/>
<path d="M0 0 C0.99 0 1.98 0 3 0 C3.66 1.98 4.32 3.96 5 6 C5.66 6 6.32 6 7 6 C6.67 6.66 6.34 7.32 6 8 C3.69 6.35 1.38 4.7 -1 3 C-0.67 2.01 -0.34 1.02 0 0 Z " fill="#748AE1" transform="translate(260,173)"/>
<path d="M0 0 C1.23556641 0.01740234 1.23556641 0.01740234 2.49609375 0.03515625 C3.32238281 0.04417969 4.14867187 0.05320313 5 0.0625 C5.63808594 0.07410156 6.27617187 0.08570313 6.93359375 0.09765625 C6.93359375 0.42765625 6.93359375 0.75765625 6.93359375 1.09765625 C4.29359375 1.09765625 1.65359375 1.09765625 -1.06640625 1.09765625 C-1.06640625 2.74765625 -1.06640625 4.39765625 -1.06640625 6.09765625 C-2.38640625 6.42765625 -3.70640625 6.75765625 -5.06640625 7.09765625 C-2.84409328 0.13440895 -2.84409328 0.13440895 0 0 Z " fill="#6689DB" transform="translate(221.06640625,170.90234375)"/>
<path d="M0 0 C6.625 -0.25 6.625 -0.25 10 2 C10 2.99 10 3.98 10 5 C8.0625 4.625 8.0625 4.625 6 4 C5.67 3.34 5.34 2.68 5 2 C2.47266765 1.34444881 2.47266765 1.34444881 0 1 C0 0.67 0 0.34 0 0 Z " fill="#6463DD" transform="translate(186,159)"/>
<path d="M0 0 C0.33 0 0.66 0 1 0 C1.33 3.63 1.66 7.26 2 11 C-1 8 -1 8 -1.25 4.9375 C-1 2 -1 2 0 0 Z " fill="#798BE4" transform="translate(279,234)"/>
<path d="M0 0 C-0.33 1.32 -0.66 2.64 -1 4 C-2.98 4 -4.96 4 -7 4 C-6.67 3.01 -6.34 2.02 -6 1 C-3.90006779 0.25486277 -2.22568901 0 0 0 Z " fill="#4754DB" transform="translate(222,218)"/>
<path d="M0 0 C-0.99 1.485 -0.99 1.485 -2 3 C-5.625 3.1875 -5.625 3.1875 -9 3 C-7.14340032 -0.71319936 -3.69365381 -0.09982848 0 0 Z " fill="#3A3EBC" transform="translate(298,244)"/>
<path d="M0 0 C0.99 0 1.98 0 3 0 C3.36923077 4.55384615 3.36923077 4.55384615 1.5 6.8125 C1.005 7.204375 0.51 7.59625 0 8 C0 5.36 0 2.72 0 0 Z " fill="#7B88E1" transform="translate(202,234)"/>
<path d="M0 0 C0.99 0 1.98 0 3 0 C3 1.32 3 2.64 3 4 C1 5.75 1 5.75 -1 7 C-1.66 6.67 -2.32 6.34 -3 6 C-2.67 5.34 -2.34 4.68 -2 4 C-1.34 4 -0.68 4 0 4 C0 2.68 0 1.36 0 0 Z " fill="#615DE4" transform="translate(308,228)"/>
<path d="M0 0 C2 1 2 1 3 3 C0.69 4.32 -1.62 5.64 -4 7 C-2.79618552 4.50638429 -1.54571278 2.31856917 0 0 Z " fill="#6584DD" transform="translate(267,230)"/>
<path d="M0 0 C1.2065625 0.0309375 1.2065625 0.0309375 2.4375 0.0625 C2.7675 1.7125 3.0975 3.3625 3.4375 5.0625 C2.7775 5.0625 2.1175 5.0625 1.4375 5.0625 C1.1075 4.4025 0.7775 3.7425 0.4375 3.0625 C-1.57919827 1.92899466 -1.57919827 1.92899466 -3.5625 1.0625 C-2.5625 0.0625 -2.5625 0.0625 0 0 Z " fill="#3D48DC" transform="translate(298.5625,218.9375)"/>
<path d="M0 0 C0.33 0.66 0.66 1.32 1 2 C2.65 1.67 4.3 1.34 6 1 C6 1.66 6 2.32 6 3 C5.071875 3.185625 5.071875 3.185625 4.125 3.375 C1.80879168 3.87197356 1.80879168 3.87197356 0 6 C-0.38218767 4.34385343 -0.71395102 2.67542976 -1 1 C-0.67 0.67 -0.34 0.34 0 0 Z " fill="#566EDA" transform="translate(214,216)"/>
<path d="M0 0 C0 1.65 0 3.3 0 5 C-0.33 4.01 -0.66 3.02 -1 2 C-3.31 1.67 -5.62 1.34 -8 1 C-4.93251126 -0.86240388 -3.40254489 -1.2151946 0 0 Z " fill="#697CE8" transform="translate(311,175)"/>
<path d="M0 0 C1.98 0 3.96 0 6 0 C5.67 0.99 5.34 1.98 5 3 C3.02 3 1.04 3 -1 3 C-0.67 2.01 -0.34 1.02 0 0 Z " fill="#466CCE" transform="translate(255,234)"/>
<path d="M0 0 C1.32 0 2.64 0 4 0 C3.67 1.98 3.34 3.96 3 6 C2.01 5.67 1.02 5.34 0 5 C-0.75 3 -0.75 3 -1 1 C-0.67 0.67 -0.34 0.34 0 0 Z " fill="#788AE2" transform="translate(183,232)"/>
<path d="M0 0 C0.33 0.66 0.66 1.32 1 2 C1.99 2 2.98 2 4 2 C3.67 4.31 3.34 6.62 3 9 C0.87491756 5.81237635 0.4979837 3.73487777 0 0 Z " fill="#7D8DE6" transform="translate(294,231)"/>
<path d="M0 0 C1.32 0.66 2.64 1.32 4 2 C3.67 3.32 3.34 4.64 3 6 C1.68 4.68 0.36 3.36 -1 2 C-0.67 1.34 -0.34 0.68 0 0 Z " fill="#626BE2" transform="translate(213,228)"/>
<path d="M0 0 C1.65 0 3.3 0 5 0 C5 0.99 5 1.98 5 3 C3.35 3.33 1.7 3.66 0 4 C0 2.68 0 1.36 0 0 Z " fill="#96A3DF" transform="translate(262,211)"/>
<path d="M0 0 C0.66 0 1.32 0 2 0 C1.67 1.32 1.34 2.64 1 4 C0.67 2.68 0.34 1.36 0 0 Z M-5 4 C-3.35 4 -1.7 4 0 4 C-0.99 5.485 -0.99 5.485 -2 7 C-2.99 6.67 -3.98 6.34 -5 6 C-5 5.34 -5 4.68 -5 4 Z " fill="#4E7FDB" transform="translate(221,194)"/>
<path d="M0 0 C0.99 0 1.98 0 3 0 C3.33 1.65 3.66 3.3 4 5 C3.01 5.33 2.02 5.66 1 6 C0.67 4.02 0.34 2.04 0 0 Z " fill="#6D7CEB" transform="translate(316,184)"/>
<path d="M0 0 C0.99 0.33 1.98 0.66 3 1 C3.33 2.65 3.66 4.3 4 6 C2.68 5.34 1.36 4.68 0 4 C0 2.68 0 1.36 0 0 Z " fill="#709CE8" transform="translate(182,239)"/>
<path d="M0 0 C0.66 0 1.32 0 2 0 C3.125 2.3125 3.125 2.3125 4 5 C3.01 6.485 3.01 6.485 2 8 C0.23537317 4.91190305 0 3.76687864 0 0 Z " fill="#3D53DB" transform="translate(299,232)"/>
<path d="M0 0 C0.33 0 0.66 0 1 0 C1.66 2.64 2.32 5.28 3 8 C1.68 7.67 0.36 7.34 -1 7 C-0.67 4.69 -0.34 2.38 0 0 Z " fill="#7B8DEA" transform="translate(159,202)"/>
<path d="M0 0 C1.98 0.495 1.98 0.495 4 1 C3.67 2.32 3.34 3.64 3 5 C1.68 5.33 0.36 5.66 -1 6 C-0.67 4.02 -0.34 2.04 0 0 Z " fill="#5F66D9" transform="translate(175,202)"/>
<path d="M0 0 C0.99 0.33 1.98 0.66 3 1 C3 1.99 3 2.98 3 4 C1.35 4 -0.3 4 -2 4 C-2 3.01 -2 2.02 -2 1 C-1.34 0.67 -0.68 0.34 0 0 Z " fill="#9BA6DF" transform="translate(217,194)"/>
<path d="M0 0 C0.33 0 0.66 0 1 0 C1 2.31 1 4.62 1 7 C0.01 6.67 -0.98 6.34 -2 6 C-1.125 1.125 -1.125 1.125 0 0 Z " fill="#8787E7" transform="translate(166,187)"/>
<path d="M0 0 C2.0625 0.4375 2.0625 0.4375 4 1 C3.67 1.99 3.34 2.98 3 4 C3 3.34 3 2.68 3 2 C-0.16666667 3.83333333 -0.16666667 3.83333333 -2 7 C-1.125 1.125 -1.125 1.125 0 0 Z " fill="#CCCBE4" transform="translate(177,174)"/>
<path d="M0 0 C2.475 0.495 2.475 0.495 5 1 C5.33 2.65 5.66 4.3 6 6 C5.566875 5.525625 5.13375 5.05125 4.6875 4.5625 C2.97690387 2.76313043 2.97690387 2.76313043 0 2 C0 1.34 0 0.68 0 0 Z " fill="#4557DC" transform="translate(306,170)"/>
</svg>
